<?xml version="1.0" encoding="utf-8"?>
<!-- Generator: Adobe Illustrator 16.0.0, SVG Export Plug-In . SVG Version: 6.00 Build 0)  -->
<!DOCTYPE svg PUBLIC "-//W3C//DTD SVG 1.1//EN" "http://www.w3.org/Graphics/SVG/1.1/DTD/svg11.dtd">
<svg version="1.1" id="Layer_1" xmlns="http://www.w3.org/2000/svg" xmlns:xlink="http://www.w3.org/1999/xlink" x="0px" y="0px"
	 width="566.93px" height="566.93px" viewBox="0 0 566.93 566.93" enable-background="new 0 0 566.93 566.93" xml:space="preserve">
<circle fill="#FFFFFF" stroke="#63BFEC" stroke-width="12.4952" stroke-miterlimit="10" cx="221.233" cy="168.888" r="127.108"/>
<circle fill="#FFFFFF" stroke="#3B4DA0" stroke-width="12.4952" stroke-miterlimit="10" cx="412.886" cy="405.6" r="29.694"/>
<polyline fill="none" stroke="#4A55A4" stroke-width="4.1651" stroke-miterlimit="10" points="56.965,528.316 94.329,489.789 
	126.879,528.313 222.87,305.145 317.823,528.313 413.811,451.263 508.762,528.316 "/>
<line fill="none" stroke="#DC4B26" stroke-width="2.0825" stroke-miterlimit="10" x1="95.241" y1="329.658" x2="349.456" y2="329.658"/>
<rect x="97.775" y="120.068" fill="none" width="246.923" height="154.107"/>
<g enable-background="new    ">
	<path fill="#2A3693" d="M196.22,169.609c-2.156,4.678-5.501,8.45-10.036,11.318c-4.536,2.867-9.65,4.301-15.345,4.301
		c-4.881,0-9.274-1.312-13.179-3.936c-3.905-2.623-6.955-6.232-9.151-10.829c-2.197-4.596-3.295-9.64-3.295-15.131
		c0-5.816,1.118-11.155,3.355-16.016c2.237-4.86,5.369-8.674,9.396-11.439s8.48-4.149,13.362-4.149
		c9.152,0,16.127,2.98,20.927,8.938c4.799,5.959,7.22,14.552,7.261,25.777v10.189c0,15.009-3.336,26.448-10.006,34.318
		c-6.671,7.871-16.494,11.888-29.469,12.051h-2.928l0.122-3.295h2.624c11.876-0.122,20.906-3.742,27.089-10.86
		C193.129,193.73,196.22,183.317,196.22,169.609z M170.84,181.934c6.019,0,11.348-1.769,15.985-5.308
		c4.637-3.539,7.769-8.236,9.396-14.094v-3.782c0-10.29-2.126-18.151-6.375-23.582c-4.251-5.43-10.342-8.145-18.273-8.145
		c-4.353,0-8.297,1.281-11.836,3.844s-6.295,6.051-8.267,10.464c-1.974,4.413-2.959,9.081-2.959,14.002
		c0,4.841,0.955,9.325,2.867,13.453c1.912,4.129,4.555,7.352,7.932,9.67C162.684,180.774,166.528,181.934,170.84,181.934z"/>
	<path fill="#2A3693" d="M258.575,123.729v3.295c-12.446,0-22.107,3.682-28.98,11.043c-6.875,7.362-10.576,17.693-11.104,30.994
		c2.358-4.188,5.775-7.514,10.25-9.976c4.474-2.46,9.375-3.691,14.704-3.691c7.81,0,14.042,2.665,18.7,7.993
		c4.657,5.329,6.986,12.365,6.986,21.109c0,5.654-1.058,10.82-3.173,15.497c-2.115,4.679-5.105,8.35-8.969,11.013
		c-3.865,2.665-8.175,3.997-12.935,3.997c-5.451,0-10.372-1.261-14.765-3.783c-4.393-2.521-7.831-6.121-10.311-10.799
		c-2.481-4.677-3.763-10.006-3.844-15.985v-10.921c0-15.781,3.722-28.024,11.165-36.729
		C233.743,128.081,244.501,123.729,258.575,123.729z M243.017,158.688c-5.695,0-10.912,1.636-15.649,4.906
		c-4.739,3.271-7.718,7.364-8.938,12.279v7.801c0,8.37,2.379,15.135,7.139,20.294c4.759,5.159,10.921,7.739,18.486,7.739
		c6.304,0,11.51-2.63,15.619-7.892c4.108-5.262,6.162-11.712,6.162-19.35c0-7.882-2.034-14.147-6.101-18.8
		C255.666,161.015,250.094,158.688,243.017,158.688z"/>
</g>
<g enable-background="new    ">
	<path fill="#2A3693" d="M277.367,192.257c0-1.646,0.537-2.977,1.61-3.99c1.074-1.013,2.514-1.519,4.32-1.519
		c1.83,0,3.276,0.503,4.338,1.51s1.592,2.37,1.592,4.091v1.318c0,1.646-0.53,2.971-1.592,3.972s-2.496,1.501-4.301,1.501
		c-1.794,0-3.237-0.497-4.329-1.492c-1.092-0.994-1.638-2.357-1.638-4.091V192.257z M281.339,193.662
		c0,0.631,0.177,1.143,0.531,1.537c0.354,0.394,0.842,0.591,1.464,0.591c1.282,0,1.922-0.813,1.922-2.438v-1.091
		c0-0.631-0.172-1.148-0.514-1.555c-0.341-0.406-0.823-0.609-1.445-0.609c-0.598,0-1.074,0.197-1.428,0.591
		c-0.354,0.395-0.531,0.931-0.531,1.609V193.662z M284.505,211.787l-2.874-1.446l13.013-20.829l2.874,1.446L284.505,211.787z
		 M290.033,207.248c0-1.659,0.539-2.989,1.619-3.99s2.518-1.501,4.311-1.501c1.818,0,3.264,0.494,4.338,1.482
		s1.611,2.367,1.611,4.137v1.281c0,1.659-0.531,2.99-1.593,3.99c-1.062,1.001-2.501,1.501-4.319,1.501
		c-1.794,0-3.237-0.497-4.329-1.492c-1.093-0.994-1.638-2.357-1.638-4.091V207.248z M293.987,208.652c0,0.57,0.195,1.07,0.586,1.501
		s0.865,0.646,1.428,0.646c1.184,0,1.824-0.558,1.922-1.673l0.018-1.874c0-0.643-0.177-1.16-0.53-1.555
		c-0.354-0.394-0.836-0.591-1.446-0.591c-0.586,0-1.056,0.185-1.409,0.555c-0.354,0.37-0.543,0.87-0.567,1.5V208.652z"/>
</g>
</svg>
