<?xml version="1.0" encoding="utf-8"?>
<!-- Generator: Adobe Illustrator 16.0.0, SVG Export Plug-In . SVG Version: 6.00 Build 0)  -->
<!DOCTYPE svg PUBLIC "-//W3C//DTD SVG 1.1//EN" "http://www.w3.org/Graphics/SVG/1.1/DTD/svg11.dtd">
<svg version="1.1" id="Layer_1" xmlns="http://www.w3.org/2000/svg" xmlns:xlink="http://www.w3.org/1999/xlink" x="0px" y="0px"
	 width="566.93px" height="566.93px" viewBox="0 0 566.93 566.93" enable-background="new 0 0 566.93 566.93" xml:space="preserve">
<path fill="none" stroke="#42C4E5" stroke-width="3.4505" stroke-miterlimit="10" d="M28.25,85.418h510.332
	c6.195,0,11.217,5.02,11.217,11.215v197.88c0,6.193-5.021,11.215-11.217,11.215h-42.4l-10.315,21.107l-12.059-21.107H28.25
	c-6.193,0-11.215-5.021-11.215-11.215V96.634C17.034,90.438,22.056,85.418,28.25,85.418z"/>
<g opacity="0.6">
	<path fill="#527BBC" d="M162.172,135.241v-8.981l-6.689-12.185h3.109l2.983,5.841c0.816,1.602,1.444,2.889,2.104,4.365h0.063
		c0.597-1.382,1.319-2.764,2.136-4.365l3.046-5.841h3.109l-7.097,12.153v9.013H162.172z"/>
	<path fill="#527BBC" d="M185.725,127.516c0,5.621-3.894,8.07-7.568,8.07c-4.114,0-7.285-3.015-7.285-7.819
		c0-5.087,3.329-8.071,7.537-8.071C182.773,119.696,185.725,122.868,185.725,127.516z M173.666,127.673
		c0,3.329,1.916,5.841,4.616,5.841c2.638,0,4.616-2.481,4.616-5.904c0-2.575-1.288-5.841-4.554-5.841
		C175.079,121.769,173.666,124.784,173.666,127.673z"/>
	<path fill="#527BBC" d="M201.929,131.096c0,1.57,0.032,2.952,0.126,4.145h-2.45l-0.157-2.481h-0.063
		c-0.722,1.225-2.324,2.826-5.024,2.826c-2.387,0-5.244-1.319-5.244-6.657v-8.887h2.763v8.416c0,2.889,0.879,4.836,3.392,4.836
		c1.853,0,3.14-1.288,3.643-2.512c0.157-0.408,0.251-0.911,0.251-1.413v-9.327h2.763V131.096z"/>
	<path fill="#527BBC" d="M221.59,135.241l-0.22-1.916h-0.094c-0.848,1.193-2.48,2.261-4.647,2.261c-3.077,0-4.647-2.167-4.647-4.365
		c0-3.674,3.266-5.684,9.138-5.652v-0.314c0-1.256-0.346-3.517-3.454-3.517c-1.414,0-2.889,0.439-3.957,1.13l-0.628-1.821
		c1.256-0.816,3.077-1.351,4.993-1.351c4.647,0,5.778,3.172,5.778,6.218v5.684c0,1.319,0.063,2.606,0.251,3.643H221.59z
		 M221.181,127.484c-3.015-0.063-6.438,0.471-6.438,3.423c0,1.79,1.193,2.638,2.606,2.638c1.979,0,3.235-1.256,3.674-2.543
		c0.094-0.283,0.157-0.597,0.157-0.879V127.484z"/>
	<path fill="#527BBC" d="M228.311,124.784c0-1.79-0.031-3.329-0.125-4.742h2.418l0.094,2.983h0.125
		c0.691-2.041,2.355-3.329,4.208-3.329c0.314,0,0.534,0.032,0.785,0.094v2.606c-0.282-0.063-0.565-0.094-0.942-0.094
		c-1.947,0-3.329,1.476-3.706,3.549c-0.063,0.376-0.125,0.816-0.125,1.287v8.102h-2.732V124.784z"/>
	<path fill="#527BBC" d="M239.805,128.144c0.063,3.737,2.449,5.276,5.213,5.276c1.979,0,3.172-0.346,4.208-0.785l0.471,1.979
		c-0.974,0.439-2.638,0.942-5.056,0.942c-4.679,0-7.474-3.077-7.474-7.662s2.701-8.196,7.128-8.196c4.961,0,6.28,4.365,6.28,7.16
		c0,0.565-0.063,1.005-0.094,1.287H239.805z M247.907,126.166c0.031-1.759-0.722-4.491-3.831-4.491c-2.795,0-4.02,2.575-4.24,4.491
		H247.907z"/>
	<path fill="#527BBC" d="M260.281,132.415c0.816,0.534,2.261,1.099,3.643,1.099c2.01,0,2.952-1.005,2.952-2.261
		c0-1.319-0.785-2.041-2.826-2.794c-2.732-0.974-4.02-2.481-4.02-4.302c0-2.45,1.978-4.459,5.244-4.459
		c1.539,0,2.889,0.44,3.737,0.942l-0.691,2.01c-0.597-0.377-1.696-0.879-3.109-0.879c-1.633,0-2.543,0.942-2.543,2.073
		c0,1.256,0.911,1.821,2.889,2.575c2.638,1.005,3.988,2.324,3.988,4.585c0,2.669-2.072,4.553-5.684,4.553
		c-1.665,0-3.203-0.408-4.271-1.036L260.281,132.415z"/>
	<path fill="#527BBC" d="M285.812,131.096c0,1.57,0.031,2.952,0.125,4.145h-2.449l-0.157-2.481h-0.063
		c-0.722,1.225-2.324,2.826-5.024,2.826c-2.387,0-5.244-1.319-5.244-6.657v-8.887h2.763v8.416c0,2.889,0.879,4.836,3.392,4.836
		c1.853,0,3.14-1.288,3.643-2.512c0.157-0.408,0.251-0.911,0.251-1.413v-9.327h2.764V131.096z"/>
	<path fill="#527BBC" d="M303.492,120.042c-0.063,1.099-0.126,2.324-0.126,4.176v8.824c0,3.486-0.69,5.621-2.167,6.94
		c-1.476,1.382-3.611,1.821-5.526,1.821c-1.821,0-3.831-0.439-5.056-1.256l0.69-2.104c1.005,0.628,2.575,1.193,4.459,1.193
		c2.826,0,4.899-1.476,4.899-5.307v-1.696h-0.063c-0.848,1.413-2.48,2.543-4.836,2.543c-3.769,0-6.469-3.203-6.469-7.411
		c0-5.15,3.36-8.071,6.846-8.071c2.638,0,4.082,1.382,4.742,2.638h0.063l0.126-2.292H303.492z M300.634,126.04
		c0-0.471-0.031-0.879-0.156-1.256c-0.503-1.602-1.854-2.92-3.863-2.92c-2.638,0-4.521,2.229-4.521,5.747
		c0,2.983,1.507,5.464,4.49,5.464c1.696,0,3.234-1.067,3.831-2.826c0.157-0.471,0.22-1.005,0.22-1.476V126.04z"/>
	<path fill="#527BBC" d="M321.047,120.042c-0.063,1.099-0.126,2.324-0.126,4.176v8.824c0,3.486-0.69,5.621-2.167,6.94
		c-1.476,1.382-3.611,1.821-5.526,1.821c-1.821,0-3.831-0.439-5.056-1.256l0.69-2.104c1.005,0.628,2.575,1.193,4.459,1.193
		c2.826,0,4.899-1.476,4.899-5.307v-1.696h-0.063c-0.848,1.413-2.48,2.543-4.836,2.543c-3.769,0-6.469-3.203-6.469-7.411
		c0-5.15,3.36-8.071,6.846-8.071c2.638,0,4.082,1.382,4.742,2.638h0.063l0.126-2.292H321.047z M318.189,126.04
		c0-0.471-0.031-0.879-0.156-1.256c-0.503-1.602-1.854-2.92-3.863-2.92c-2.638,0-4.521,2.229-4.521,5.747
		c0,2.983,1.507,5.464,4.49,5.464c1.696,0,3.234-1.067,3.831-2.826c0.157-0.471,0.22-1.005,0.22-1.476V126.04z"/>
	<path fill="#527BBC" d="M327.045,128.144c0.063,3.737,2.449,5.276,5.213,5.276c1.979,0,3.172-0.346,4.208-0.785l0.471,1.979
		c-0.974,0.439-2.638,0.942-5.056,0.942c-4.679,0-7.474-3.077-7.474-7.662s2.7-8.196,7.128-8.196c4.962,0,6.281,4.365,6.281,7.16
		c0,0.565-0.063,1.005-0.095,1.287H327.045z M335.147,126.166c0.032-1.759-0.722-4.491-3.831-4.491c-2.795,0-4.02,2.575-4.239,4.491
		H335.147z"/>
	<path fill="#527BBC" d="M340.864,132.415c0.816,0.534,2.261,1.099,3.643,1.099c2.01,0,2.951-1.005,2.951-2.261
		c0-1.319-0.785-2.041-2.826-2.794c-2.731-0.974-4.02-2.481-4.02-4.302c0-2.45,1.979-4.459,5.244-4.459
		c1.539,0,2.89,0.44,3.737,0.942l-0.69,2.01c-0.597-0.377-1.696-0.879-3.109-0.879c-1.633,0-2.544,0.942-2.544,2.073
		c0,1.256,0.911,1.821,2.89,2.575c2.638,1.005,3.988,2.324,3.988,4.585c0,2.669-2.073,4.553-5.685,4.553
		c-1.664,0-3.203-0.408-4.271-1.036L340.864,132.415z"/>
	<path fill="#527BBC" d="M357.005,115.677v4.365h3.957v2.104h-3.957v8.196c0,1.884,0.534,2.952,2.072,2.952
		c0.723,0,1.257-0.094,1.602-0.188l0.126,2.072c-0.534,0.22-1.382,0.377-2.449,0.377c-1.288,0-2.324-0.408-2.983-1.162
		c-0.785-0.817-1.067-2.167-1.067-3.957v-8.29h-2.355v-2.104h2.355v-3.643L357.005,115.677z"/>
	<path fill="#527BBC" d="M365.421,128.144c0.063,3.737,2.449,5.276,5.213,5.276c1.979,0,3.172-0.346,4.208-0.785l0.471,1.979
		c-0.974,0.439-2.638,0.942-5.056,0.942c-4.679,0-7.474-3.077-7.474-7.662s2.7-8.196,7.128-8.196c4.962,0,6.281,4.365,6.281,7.16
		c0,0.565-0.063,1.005-0.095,1.287H365.421z M373.523,126.166c0.032-1.759-0.722-4.491-3.831-4.491c-2.795,0-4.02,2.575-4.239,4.491
		H373.523z"/>
	<path fill="#527BBC" d="M392.742,112.945v18.371c0,1.35,0.031,2.889,0.125,3.925h-2.48l-0.126-2.638h-0.063
		c-0.848,1.696-2.7,2.983-5.182,2.983c-3.674,0-6.5-3.108-6.5-7.725c-0.031-5.056,3.108-8.165,6.814-8.165
		c2.323,0,3.894,1.099,4.585,2.324h0.063v-9.075H392.742z M389.979,126.228c0-0.345-0.031-0.816-0.126-1.162
		c-0.408-1.759-1.915-3.203-3.987-3.203c-2.858,0-4.554,2.512-4.554,5.872c0,3.078,1.507,5.621,4.49,5.621
		c1.853,0,3.549-1.225,4.051-3.297c0.095-0.376,0.126-0.753,0.126-1.193V126.228z"/>
	<path fill="#527BBC" d="M407.314,115.677v4.365h3.957v2.104h-3.957v8.196c0,1.884,0.534,2.952,2.072,2.952
		c0.723,0,1.257-0.094,1.602-0.188l0.126,2.072c-0.534,0.22-1.382,0.377-2.449,0.377c-1.288,0-2.324-0.408-2.983-1.162
		c-0.785-0.817-1.067-2.167-1.067-3.957v-8.29h-2.355v-2.104h2.355v-3.643L407.314,115.677z"/>
	<path fill="#527BBC" d="M427.946,127.516c0,5.621-3.895,8.07-7.568,8.07c-4.113,0-7.285-3.015-7.285-7.819
		c0-5.087,3.328-8.071,7.536-8.071C424.993,119.696,427.946,122.868,427.946,127.516z M415.887,127.673
		c0,3.329,1.915,5.841,4.616,5.841c2.638,0,4.616-2.481,4.616-5.904c0-2.575-1.288-5.841-4.554-5.841
		S415.887,124.784,415.887,127.673z"/>
	<path fill="#527BBC" d="M439.157,120.042l2.983,8.542c0.502,1.381,0.91,2.638,1.225,3.894h0.094
		c0.346-1.256,0.785-2.513,1.288-3.894l2.951-8.542h2.89l-5.967,15.199h-2.638l-5.778-15.199H439.157z"/>
	<path fill="#527BBC" d="M456.273,115.771c0.031,0.942-0.66,1.696-1.759,1.696c-0.974,0-1.664-0.753-1.664-1.696
		c0-0.973,0.722-1.727,1.727-1.727C455.613,114.044,456.273,114.798,456.273,115.771z M453.195,135.241v-15.199h2.764v15.199
		H453.195z"/>
	<path fill="#527BBC" d="M460.167,132.415c0.816,0.534,2.261,1.099,3.643,1.099c2.01,0,2.951-1.005,2.951-2.261
		c0-1.319-0.785-2.041-2.826-2.794c-2.731-0.974-4.02-2.481-4.02-4.302c0-2.45,1.979-4.459,5.244-4.459
		c1.539,0,2.89,0.44,3.737,0.942l-0.69,2.01c-0.597-0.377-1.696-0.879-3.109-0.879c-1.633,0-2.544,0.942-2.544,2.073
		c0,1.256,0.911,1.821,2.89,2.575c2.638,1.005,3.988,2.324,3.988,4.585c0,2.669-2.073,4.553-5.685,4.553
		c-1.664,0-3.203-0.408-4.271-1.036L460.167,132.415z"/>
	<path fill="#527BBC" d="M476.058,115.771c0.031,0.942-0.66,1.696-1.759,1.696c-0.974,0-1.664-0.753-1.664-1.696
		c0-0.973,0.722-1.727,1.727-1.727C475.398,114.044,476.058,114.798,476.058,115.771z M472.98,135.241v-15.199h2.764v15.199H472.98z
		"/>
	<path fill="#527BBC" d="M483.657,115.677v4.365h3.957v2.104h-3.957v8.196c0,1.884,0.534,2.952,2.072,2.952
		c0.723,0,1.257-0.094,1.602-0.188l0.126,2.072c-0.534,0.22-1.382,0.377-2.449,0.377c-1.288,0-2.324-0.408-2.983-1.162
		c-0.785-0.817-1.067-2.167-1.067-3.957v-8.29h-2.355v-2.104h2.355v-3.643L483.657,115.677z"/>
	<path fill="#527BBC" d="M170.493,150.631v18.371c0,1.35,0.032,2.889,0.126,3.925h-2.481l-0.125-2.638h-0.063
		c-0.848,1.696-2.701,2.983-5.181,2.983c-3.674,0-6.5-3.109-6.5-7.725c-0.031-5.056,3.109-8.165,6.814-8.165
		c2.324,0,3.894,1.099,4.584,2.324h0.063v-9.075H170.493z M167.73,163.914c0-0.345-0.031-0.816-0.125-1.162
		c-0.408-1.759-1.916-3.203-3.988-3.203c-2.857,0-4.553,2.512-4.553,5.872c0,3.078,1.507,5.621,4.49,5.621
		c1.853,0,3.549-1.225,4.051-3.297c0.094-0.376,0.125-0.753,0.125-1.193V163.914z"/>
	<path fill="#527BBC" d="M188.834,165.202c0,5.621-3.894,8.07-7.568,8.07c-4.114,0-7.285-3.015-7.285-7.819
		c0-5.087,3.329-8.071,7.537-8.071C185.882,157.382,188.834,160.554,188.834,165.202z M176.775,165.359
		c0,3.329,1.916,5.841,4.616,5.841c2.638,0,4.616-2.481,4.616-5.904c0-2.575-1.288-5.841-4.554-5.841
		C178.188,159.455,176.775,162.47,176.775,165.359z"/>
	<path fill="#527BBC" d="M203.155,172.361c-0.723,0.377-2.324,0.879-4.365,0.879c-4.584,0-7.568-3.109-7.568-7.756
		c0-4.679,3.203-8.07,8.165-8.07c1.633,0,3.078,0.408,3.831,0.785l-0.628,2.136c-0.66-0.377-1.696-0.722-3.203-0.722
		c-3.486,0-5.37,2.575-5.37,5.747c0,3.517,2.261,5.684,5.275,5.684c1.57,0,2.606-0.408,3.392-0.753L203.155,172.361z"/>
	<path fill="#527BBC" d="M210.126,153.363v4.365h3.957v2.104h-3.957v8.196c0,1.884,0.534,2.952,2.073,2.952
		c0.722,0,1.256-0.094,1.601-0.188l0.126,2.072c-0.534,0.22-1.382,0.377-2.45,0.377c-1.287,0-2.324-0.408-2.983-1.162
		c-0.785-0.817-1.068-2.167-1.068-3.957v-8.29h-2.355v-2.104h2.355v-3.643L210.126,153.363z"/>
	<path fill="#527BBC" d="M230.759,165.202c0,5.621-3.894,8.07-7.568,8.07c-4.114,0-7.285-3.015-7.285-7.819
		c0-5.087,3.329-8.071,7.537-8.071C227.806,157.382,230.759,160.554,230.759,165.202z M218.7,165.359
		c0,3.329,1.916,5.841,4.616,5.841c2.638,0,4.616-2.481,4.616-5.904c0-2.575-1.288-5.841-4.554-5.841
		C220.113,159.455,218.7,162.47,218.7,165.359z"/>
	<path fill="#527BBC" d="M234.245,162.47c0-1.79-0.031-3.329-0.125-4.742h2.418l0.094,2.983h0.125
		c0.691-2.041,2.355-3.329,4.208-3.329c0.314,0,0.534,0.032,0.785,0.094v2.606c-0.282-0.063-0.565-0.094-0.942-0.094
		c-1.947,0-3.329,1.476-3.706,3.549c-0.063,0.376-0.125,0.816-0.125,1.287v8.102h-2.732V162.47z"/>
	<path fill="#527BBC" d="M250.513,171.294c0-1.162,0.785-1.979,1.884-1.979s1.853,0.816,1.853,1.979c0,1.13-0.722,1.978-1.884,1.978
		C251.267,173.272,250.513,172.424,250.513,171.294z"/>
	<path fill="#527BBC" d="M267.157,151.761v21.166h-2.732v-21.166H267.157z"/>
	<path fill="#527BBC" d="M275.668,153.363v4.365h3.957v2.104h-3.957v8.196c0,1.884,0.534,2.952,2.073,2.952
		c0.722,0,1.256-0.094,1.602-0.188l0.125,2.072c-0.534,0.22-1.382,0.377-2.45,0.377c-1.287,0-2.324-0.408-2.983-1.162
		c-0.785-0.817-1.068-2.167-1.068-3.957v-8.29h-2.355v-2.104h2.355v-3.643L275.668,153.363z"/>
	<path fill="#527BBC" d="M289.015,170.101c0.816,0.534,2.261,1.099,3.643,1.099c2.01,0,2.951-1.005,2.951-2.261
		c0-1.319-0.785-2.041-2.826-2.795c-2.731-0.973-4.02-2.48-4.02-4.302c0-2.45,1.979-4.459,5.244-4.459
		c1.539,0,2.89,0.44,3.737,0.942l-0.69,2.01c-0.597-0.377-1.696-0.879-3.109-0.879c-1.633,0-2.544,0.942-2.544,2.073
		c0,1.256,0.911,1.821,2.89,2.575c2.638,1.005,3.988,2.324,3.988,4.585c0,2.669-2.073,4.553-5.685,4.553
		c-1.664,0-3.203-0.408-4.271-1.036L289.015,170.101z"/>
	<path fill="#527BBC" d="M303.366,165.83c0.063,3.737,2.449,5.276,5.213,5.276c1.979,0,3.172-0.346,4.208-0.785l0.471,1.979
		c-0.974,0.439-2.638,0.942-5.056,0.942c-4.679,0-7.474-3.078-7.474-7.662c0-4.585,2.7-8.196,7.128-8.196
		c4.962,0,6.281,4.365,6.281,7.16c0,0.565-0.063,1.005-0.095,1.287H303.366z M311.468,163.852c0.032-1.759-0.722-4.491-3.831-4.491
		c-2.795,0-4.02,2.575-4.239,4.491H311.468z"/>
	<path fill="#527BBC" d="M319.1,165.83c0.063,3.737,2.449,5.276,5.213,5.276c1.979,0,3.172-0.346,4.208-0.785l0.471,1.979
		c-0.974,0.439-2.638,0.942-5.056,0.942c-4.679,0-7.474-3.078-7.474-7.662c0-4.585,2.7-8.196,7.128-8.196
		c4.962,0,6.281,4.365,6.281,7.16c0,0.565-0.063,1.005-0.095,1.287H319.1z M327.201,163.852c0.032-1.759-0.722-4.491-3.831-4.491
		c-2.795,0-4.02,2.575-4.239,4.491H327.201z"/>
	<path fill="#527BBC" d="M333.294,161.842c0-1.57-0.031-2.858-0.125-4.114h2.418l0.125,2.449h0.095
		c0.848-1.444,2.261-2.795,4.773-2.795c2.072,0,3.643,1.256,4.302,3.046h0.063c0.472-0.848,1.068-1.507,1.696-1.979
		c0.91-0.691,1.915-1.068,3.36-1.068c2.01,0,4.992,1.319,4.992,6.595v8.95h-2.7v-8.604c0-2.92-1.067-4.679-3.297-4.679
		c-1.57,0-2.795,1.162-3.267,2.512c-0.125,0.377-0.22,0.879-0.22,1.382v9.389h-2.7v-9.107c0-2.418-1.068-4.176-3.172-4.176
		c-1.728,0-2.983,1.382-3.423,2.763c-0.157,0.408-0.22,0.879-0.22,1.351v9.169h-2.701V161.842z"/>
	<path fill="#527BBC" d="M359.11,170.101c0.816,0.534,2.261,1.099,3.643,1.099c2.01,0,2.951-1.005,2.951-2.261
		c0-1.319-0.785-2.041-2.826-2.795c-2.731-0.973-4.02-2.48-4.02-4.302c0-2.45,1.979-4.459,5.244-4.459
		c1.539,0,2.89,0.44,3.737,0.942l-0.69,2.01c-0.597-0.377-1.696-0.879-3.109-0.879c-1.633,0-2.544,0.942-2.544,2.073
		c0,1.256,0.911,1.821,2.89,2.575c2.638,1.005,3.988,2.324,3.988,4.585c0,2.669-2.073,4.553-5.685,4.553
		c-1.664,0-3.203-0.408-4.271-1.036L359.11,170.101z"/>
	<path fill="#527BBC" d="M379.584,157.728l3.329,8.981c0.346,1.005,0.723,2.198,0.974,3.109h0.063
		c0.283-0.911,0.597-2.073,0.974-3.171l3.015-8.918h2.92l-4.145,10.834c-1.979,5.212-3.329,7.882-5.213,9.515
		c-1.351,1.193-2.701,1.665-3.392,1.79l-0.69-2.324c0.69-0.22,1.602-0.66,2.418-1.351c0.753-0.596,1.695-1.664,2.323-3.077
		c0.126-0.283,0.22-0.502,0.22-0.66c0-0.157-0.063-0.376-0.188-0.722l-5.621-14.005H379.584z"/>
	<path fill="#527BBC" d="M406.813,165.202c0,5.621-3.895,8.07-7.568,8.07c-4.113,0-7.285-3.015-7.285-7.819
		c0-5.087,3.328-8.071,7.536-8.071C403.861,157.382,406.813,160.554,406.813,165.202z M394.754,165.359
		c0,3.329,1.915,5.841,4.616,5.841c2.638,0,4.616-2.481,4.616-5.904c0-2.575-1.288-5.841-4.554-5.841
		S394.754,162.47,394.754,165.359z"/>
	<path fill="#527BBC" d="M423.018,168.782c0,1.57,0.031,2.952,0.125,4.145h-2.449l-0.157-2.481h-0.063
		c-0.723,1.225-2.324,2.826-5.024,2.826c-2.387,0-5.244-1.319-5.244-6.657v-8.887h2.764v8.416c0,2.889,0.879,4.836,3.392,4.836
		c1.853,0,3.14-1.288,3.643-2.512c0.156-0.408,0.251-0.911,0.251-1.413v-9.327h2.764V168.782z"/>
	<path fill="#527BBC" d="M434.26,150.631h2.764v9.483h0.063c0.44-0.785,1.131-1.476,1.979-1.947c0.816-0.471,1.79-0.785,2.826-0.785
		c2.042,0,5.308,1.256,5.308,6.5v9.044h-2.764v-8.73c0-2.449-0.911-4.522-3.517-4.522c-1.79,0-3.203,1.256-3.706,2.764
		c-0.157,0.376-0.188,0.785-0.188,1.319v9.169h-2.764V150.631z"/>
	<path fill="#527BBC" d="M460.106,172.927l-0.22-1.916h-0.094c-0.849,1.193-2.481,2.261-4.647,2.261
		c-3.078,0-4.648-2.167-4.648-4.365c0-3.674,3.267-5.684,9.139-5.652v-0.314c0-1.256-0.346-3.517-3.454-3.517
		c-1.413,0-2.89,0.439-3.957,1.13l-0.628-1.821c1.256-0.816,3.077-1.351,4.993-1.351c4.647,0,5.778,3.172,5.778,6.218v5.684
		c0,1.319,0.063,2.606,0.251,3.643H460.106z M459.698,165.17c-3.015-0.063-6.438,0.471-6.438,3.423c0,1.79,1.193,2.638,2.606,2.638
		c1.979,0,3.234-1.256,3.674-2.543c0.095-0.283,0.157-0.597,0.157-0.879V165.17z"/>
	<path fill="#527BBC" d="M479.953,150.631v18.371c0,1.35,0.031,2.889,0.125,3.925h-2.48l-0.126-2.638h-0.063
		c-0.848,1.696-2.7,2.983-5.182,2.983c-3.674,0-6.5-3.109-6.5-7.725c-0.031-5.056,3.108-8.165,6.814-8.165
		c2.323,0,3.894,1.099,4.585,2.324h0.063v-9.075H479.953z M477.19,163.914c0-0.345-0.031-0.816-0.126-1.162
		c-0.408-1.759-1.915-3.203-3.987-3.203c-2.858,0-4.554,2.512-4.554,5.872c0,3.078,1.507,5.621,4.49,5.621
		c1.853,0,3.549-1.225,4.051-3.297c0.095-0.376,0.126-0.753,0.126-1.193V163.914z"/>
	<path fill="#527BBC" d="M157.367,200.156c0-1.79-0.032-3.329-0.125-4.742h2.418l0.094,2.983h0.125
		c0.691-2.041,2.355-3.329,4.208-3.329c0.314,0,0.534,0.032,0.785,0.094v2.606c-0.283-0.063-0.565-0.094-0.942-0.094
		c-1.947,0-3.329,1.476-3.706,3.549c-0.063,0.376-0.125,0.816-0.125,1.287v8.102h-2.732V200.156z"/>
	<path fill="#527BBC" d="M168.861,203.516c0.063,3.737,2.45,5.276,5.213,5.276c1.979,0,3.172-0.346,4.208-0.785l0.471,1.979
		c-0.974,0.439-2.638,0.942-5.056,0.942c-4.679,0-7.474-3.077-7.474-7.662s2.701-8.196,7.128-8.196c4.961,0,6.28,4.365,6.28,7.16
		c0,0.565-0.063,1.005-0.094,1.287H168.861z M176.963,201.538c0.031-1.759-0.722-4.491-3.831-4.491c-2.795,0-4.02,2.575-4.24,4.491
		H176.963z"/>
	<path fill="#527BBC" d="M191.472,210.613l-0.22-1.916h-0.094c-0.848,1.193-2.48,2.261-4.647,2.261
		c-3.077,0-4.647-2.167-4.647-4.365c0-3.674,3.266-5.684,9.138-5.652v-0.314c0-1.256-0.346-3.517-3.455-3.517
		c-1.413,0-2.889,0.439-3.957,1.13l-0.628-1.821c1.256-0.816,3.078-1.351,4.993-1.351c4.647,0,5.778,3.172,5.778,6.218v5.684
		c0,1.319,0.063,2.606,0.251,3.643H191.472z M191.064,202.856c-3.015-0.063-6.438,0.471-6.438,3.423c0,1.79,1.193,2.638,2.606,2.638
		c1.979,0,3.235-1.256,3.674-2.543c0.094-0.283,0.157-0.597,0.157-0.879V202.856z"/>
	<path fill="#527BBC" d="M198.193,188.317h2.763v22.296h-2.763V188.317z"/>
	<path fill="#527BBC" d="M205.604,188.317h2.763v22.296h-2.763V188.317z"/>
	<path fill="#527BBC" d="M214.02,195.414l3.329,8.981c0.345,1.005,0.722,2.198,0.974,3.109h0.063
		c0.283-0.911,0.597-2.073,0.974-3.172l3.015-8.918h2.92l-4.145,10.834c-1.979,5.212-3.329,7.882-5.213,9.515
		c-1.351,1.193-2.701,1.665-3.392,1.79l-0.691-2.324c0.691-0.22,1.602-0.66,2.418-1.35c0.754-0.597,1.696-1.665,2.324-3.078
		c0.126-0.283,0.22-0.502,0.22-0.66c0-0.157-0.063-0.376-0.188-0.722l-5.621-14.005H214.02z"/>
	<path fill="#527BBC" d="M234.339,210.613c0.063-1.036,0.125-2.575,0.125-3.925v-18.371h2.732v9.546h0.063
		c0.973-1.696,2.732-2.795,5.181-2.795c3.769,0,6.438,3.141,6.406,7.757c0,5.433-3.423,8.133-6.814,8.133
		c-2.198,0-3.957-0.848-5.087-2.857h-0.094l-0.126,2.512H234.339z M237.197,204.521c0,0.346,0.063,0.691,0.125,1.005
		c0.534,1.916,2.135,3.235,4.145,3.235c2.889,0,4.616-2.355,4.616-5.841c0-3.046-1.57-5.652-4.522-5.652
		c-1.884,0-3.643,1.288-4.208,3.392c-0.063,0.314-0.157,0.691-0.157,1.13V204.521z"/>
	<path fill="#527BBC" d="M260.75,210.613l-0.22-1.916h-0.094c-0.848,1.193-2.48,2.261-4.647,2.261c-3.077,0-4.647-2.167-4.647-4.365
		c0-3.674,3.266-5.684,9.138-5.652v-0.314c0-1.256-0.346-3.517-3.454-3.517c-1.414,0-2.889,0.439-3.957,1.13l-0.628-1.821
		c1.256-0.816,3.077-1.351,4.993-1.351c4.647,0,5.778,3.172,5.778,6.218v5.684c0,1.319,0.063,2.606,0.251,3.643H260.75z
		 M260.341,202.856c-3.015-0.063-6.438,0.471-6.438,3.423c0,1.79,1.193,2.638,2.606,2.638c1.979,0,3.235-1.256,3.674-2.543
		c0.094-0.283,0.157-0.597,0.157-0.879V202.856z"/>
	<path fill="#527BBC" d="M280.597,188.317v18.371c0,1.35,0.032,2.889,0.126,3.925h-2.481l-0.125-2.638h-0.063
		c-0.848,1.696-2.701,2.983-5.181,2.983c-3.674,0-6.5-3.108-6.5-7.725c-0.031-5.056,3.109-8.165,6.814-8.165
		c2.324,0,3.894,1.099,4.584,2.324h0.063v-9.075H280.597z M277.834,201.6c0-0.345-0.031-0.816-0.125-1.162
		c-0.408-1.759-1.916-3.203-3.988-3.203c-2.857,0-4.553,2.512-4.553,5.872c0,3.078,1.507,5.621,4.49,5.621
		c1.853,0,3.549-1.225,4.051-3.297c0.094-0.376,0.125-0.753,0.125-1.193V201.6z"/>
	<path fill="#527BBC" d="M291.716,210.613c0.063-1.036,0.125-2.575,0.125-3.925v-18.371h2.732v9.546h0.063
		c0.974-1.696,2.732-2.795,5.182-2.795c3.769,0,6.438,3.141,6.406,7.757c0,5.433-3.423,8.133-6.814,8.133
		c-2.198,0-3.957-0.848-5.087-2.857h-0.095l-0.125,2.512H291.716z M294.573,204.521c0,0.346,0.063,0.691,0.126,1.005
		c0.533,1.916,2.135,3.235,4.145,3.235c2.89,0,4.616-2.355,4.616-5.841c0-3.046-1.57-5.652-4.521-5.652
		c-1.885,0-3.643,1.288-4.208,3.392c-0.063,0.314-0.157,0.691-0.157,1.13V204.521z"/>
	<path fill="#527BBC" d="M309.71,188.317h2.764v22.296h-2.764V188.317z"/>
	<path fill="#527BBC" d="M330.876,202.888c0,5.621-3.895,8.07-7.568,8.07c-4.113,0-7.285-3.015-7.285-7.819
		c0-5.087,3.329-8.071,7.536-8.071C327.924,195.068,330.876,198.24,330.876,202.888z M318.818,203.045
		c0,3.329,1.915,5.841,4.616,5.841c2.638,0,4.616-2.481,4.616-5.904c0-2.575-1.288-5.841-4.554-5.841
		S318.818,200.156,318.818,203.045z"/>
	<path fill="#527BBC" d="M348.117,202.888c0,5.621-3.895,8.07-7.568,8.07c-4.113,0-7.285-3.015-7.285-7.819
		c0-5.087,3.328-8.071,7.536-8.071C345.165,195.068,348.117,198.24,348.117,202.888z M336.059,203.045
		c0,3.329,1.915,5.841,4.616,5.841c2.638,0,4.616-2.481,4.616-5.904c0-2.575-1.288-5.841-4.554-5.841
		S336.059,200.156,336.059,203.045z"/>
	<path fill="#527BBC" d="M364.731,188.317v18.371c0,1.35,0.031,2.889,0.125,3.925h-2.48l-0.126-2.638h-0.063
		c-0.848,1.696-2.7,2.983-5.182,2.983c-3.674,0-6.5-3.108-6.5-7.725c-0.031-5.056,3.108-8.165,6.814-8.165
		c2.323,0,3.894,1.099,4.585,2.324h0.063v-9.075H364.731z M361.967,201.6c0-0.345-0.031-0.816-0.126-1.162
		c-0.408-1.759-1.915-3.203-3.987-3.203c-2.858,0-4.554,2.512-4.554,5.872c0,3.078,1.507,5.621,4.49,5.621
		c1.853,0,3.549-1.225,4.051-3.297c0.095-0.376,0.126-0.753,0.126-1.193V201.6z"/>
	<path fill="#527BBC" d="M375.973,200.375c0-1.947-0.063-3.517-0.125-4.961h2.48l0.126,2.606h0.063
		c1.131-1.853,2.921-2.952,5.401-2.952c3.674,0,6.438,3.109,6.438,7.725c0,5.464-3.329,8.165-6.908,8.165
		c-2.01,0-3.769-0.879-4.68-2.386h-0.063v8.259h-2.732V200.375z M378.705,204.426c0,0.409,0.063,0.785,0.126,1.131
		c0.502,1.916,2.166,3.234,4.145,3.234c2.921,0,4.616-2.387,4.616-5.873c0-3.046-1.602-5.652-4.521-5.652
		c-1.885,0-3.643,1.351-4.177,3.423c-0.095,0.346-0.188,0.754-0.188,1.131V204.426z"/>
	<path fill="#527BBC" d="M393.842,200.156c0-1.79-0.031-3.329-0.125-4.742h2.418l0.094,2.983h0.126
		c0.69-2.041,2.355-3.329,4.208-3.329c0.313,0,0.533,0.032,0.785,0.094v2.606c-0.283-0.063-0.565-0.094-0.942-0.094
		c-1.947,0-3.329,1.476-3.705,3.549c-0.063,0.376-0.126,0.816-0.126,1.287v8.102h-2.732V200.156z"/>
	<path fill="#527BBC" d="M405.336,203.516c0.063,3.737,2.449,5.276,5.213,5.276c1.979,0,3.172-0.346,4.208-0.785l0.471,1.979
		c-0.974,0.439-2.638,0.942-5.056,0.942c-4.679,0-7.474-3.077-7.474-7.662s2.7-8.196,7.128-8.196c4.962,0,6.281,4.365,6.281,7.16
		c0,0.565-0.063,1.005-0.095,1.287H405.336z M413.438,201.538c0.032-1.759-0.722-4.491-3.831-4.491c-2.795,0-4.02,2.575-4.239,4.491
		H413.438z"/>
	<path fill="#527BBC" d="M419.155,207.787c0.816,0.534,2.261,1.099,3.643,1.099c2.01,0,2.951-1.005,2.951-2.261
		c0-1.319-0.785-2.041-2.826-2.794c-2.731-0.974-4.02-2.481-4.02-4.302c0-2.45,1.979-4.459,5.244-4.459
		c1.539,0,2.89,0.44,3.737,0.942l-0.69,2.01c-0.597-0.377-1.696-0.879-3.109-0.879c-1.633,0-2.544,0.942-2.544,2.073
		c0,1.256,0.911,1.821,2.89,2.575c2.638,1.005,3.988,2.324,3.988,4.585c0,2.669-2.073,4.553-5.685,4.553
		c-1.664,0-3.203-0.408-4.271-1.036L419.155,207.787z"/>
	<path fill="#527BBC" d="M431.591,207.787c0.816,0.534,2.261,1.099,3.643,1.099c2.01,0,2.951-1.005,2.951-2.261
		c0-1.319-0.785-2.041-2.826-2.794c-2.731-0.974-4.02-2.481-4.02-4.302c0-2.45,1.979-4.459,5.244-4.459
		c1.539,0,2.89,0.44,3.737,0.942l-0.69,2.01c-0.597-0.377-1.696-0.879-3.109-0.879c-1.633,0-2.544,0.942-2.544,2.073
		c0,1.256,0.911,1.821,2.89,2.575c2.638,1.005,3.988,2.324,3.988,4.585c0,2.669-2.073,4.553-5.685,4.553
		c-1.664,0-3.203-0.408-4.271-1.036L431.591,207.787z"/>
	<path fill="#527BBC" d="M457.122,206.468c0,1.57,0.031,2.952,0.125,4.145h-2.449l-0.157-2.481h-0.063
		c-0.723,1.225-2.324,2.826-5.024,2.826c-2.387,0-5.244-1.319-5.244-6.657v-8.887h2.764v8.416c0,2.889,0.879,4.836,3.392,4.836
		c1.853,0,3.14-1.288,3.643-2.512c0.156-0.408,0.251-0.911,0.251-1.413v-9.327h2.764V206.468z"/>
	<path fill="#527BBC" d="M461.707,200.156c0-1.79-0.031-3.329-0.125-4.742H464l0.094,2.983h0.126
		c0.69-2.041,2.355-3.329,4.208-3.329c0.313,0,0.533,0.032,0.785,0.094v2.606c-0.283-0.063-0.565-0.094-0.942-0.094
		c-1.947,0-3.329,1.476-3.705,3.549c-0.063,0.376-0.126,0.816-0.126,1.287v8.102h-2.732V200.156z"/>
	<path fill="#527BBC" d="M473.202,203.516c0.063,3.737,2.449,5.276,5.213,5.276c1.979,0,3.172-0.346,4.208-0.785l0.471,1.979
		c-0.974,0.439-2.638,0.942-5.056,0.942c-4.679,0-7.474-3.077-7.474-7.662s2.7-8.196,7.128-8.196c4.962,0,6.281,4.365,6.281,7.16
		c0,0.565-0.063,1.005-0.095,1.287H473.202z M481.304,201.538c0.032-1.759-0.722-4.491-3.831-4.491c-2.795,0-4.02,2.575-4.239,4.491
		H481.304z"/>
	<path fill="#527BBC" d="M160.696,228.735v4.365h3.957v2.104h-3.957v8.196c0,1.884,0.534,2.952,2.073,2.952
		c0.722,0,1.256-0.094,1.601-0.188l0.126,2.072c-0.534,0.22-1.382,0.377-2.45,0.377c-1.287,0-2.324-0.408-2.983-1.162
		c-0.785-0.817-1.068-2.167-1.068-3.957v-8.29h-2.355V233.1h2.355v-3.643L160.696,228.735z"/>
	<path fill="#527BBC" d="M167.762,226.003h2.763v9.483h0.063c0.439-0.785,1.13-1.476,1.979-1.947
		c0.816-0.471,1.79-0.785,2.826-0.785c2.041,0,5.307,1.256,5.307,6.5v9.044h-2.764v-8.73c0-2.449-0.911-4.522-3.517-4.522
		c-1.79,0-3.203,1.256-3.706,2.764c-0.157,0.376-0.188,0.785-0.188,1.319v9.169h-2.763V226.003z"/>
	<path fill="#527BBC" d="M188.269,228.829c0.032,0.942-0.659,1.696-1.758,1.696c-0.974,0-1.665-0.753-1.665-1.696
		c0-0.973,0.723-1.727,1.728-1.727C187.61,227.102,188.269,227.856,188.269,228.829z M185.192,248.299V233.1h2.763v15.199H185.192z"
		/>
	<path fill="#527BBC" d="M192.163,245.473c0.816,0.534,2.261,1.099,3.643,1.099c2.01,0,2.952-1.005,2.952-2.261
		c0-1.319-0.785-2.041-2.826-2.795c-2.732-0.973-4.02-2.48-4.02-4.302c0-2.45,1.978-4.459,5.244-4.459
		c1.539,0,2.889,0.44,3.737,0.942l-0.691,2.01c-0.597-0.377-1.696-0.879-3.109-0.879c-1.633,0-2.543,0.942-2.543,2.073
		c0,1.256,0.911,1.821,2.889,2.575c2.638,1.005,3.988,2.324,3.988,4.585c0,2.669-2.072,4.553-5.684,4.553
		c-1.665,0-3.203-0.408-4.271-1.036L192.163,245.473z"/>
	<path fill="#527BBC" d="M212.733,233.1l2.01,7.725c0.439,1.695,0.848,3.266,1.13,4.836h0.094c0.345-1.539,0.848-3.172,1.35-4.805
		l2.481-7.756h2.324l2.355,7.599c0.565,1.821,1.005,3.423,1.35,4.962h0.094c0.251-1.539,0.66-3.141,1.162-4.93l2.167-7.631h2.732
		l-4.898,15.199h-2.512l-2.324-7.254c-0.534-1.696-0.973-3.203-1.35-4.993h-0.063c-0.376,1.821-0.848,3.392-1.381,5.024l-2.45,7.223
		h-2.512l-4.584-15.199H212.733z"/>
	<path fill="#527BBC" d="M235.972,241.202c0.063,3.737,2.45,5.276,5.213,5.276c1.979,0,3.172-0.346,4.208-0.785l0.471,1.979
		c-0.974,0.439-2.638,0.942-5.056,0.942c-4.679,0-7.474-3.078-7.474-7.662c0-4.585,2.701-8.196,7.128-8.196
		c4.961,0,6.28,4.365,6.28,7.16c0,0.565-0.063,1.005-0.094,1.287H235.972z M244.074,239.224c0.031-1.759-0.722-4.491-3.831-4.491
		c-2.795,0-4.02,2.575-4.24,4.491H244.074z"/>
	<path fill="#527BBC" d="M251.706,241.202c0.063,3.737,2.45,5.276,5.213,5.276c1.979,0,3.172-0.346,4.208-0.785l0.471,1.979
		c-0.974,0.439-2.638,0.942-5.056,0.942c-4.679,0-7.474-3.078-7.474-7.662c0-4.585,2.701-8.196,7.128-8.196
		c4.961,0,6.28,4.365,6.28,7.16c0,0.565-0.063,1.005-0.094,1.287H251.706z M259.808,239.224c0.031-1.759-0.722-4.491-3.831-4.491
		c-2.795,0-4.02,2.575-4.24,4.491H259.808z"/>
	<path fill="#527BBC" d="M268.633,240.071h0.063c0.376-0.534,0.911-1.193,1.35-1.727l4.459-5.244h3.329l-5.873,6.249l6.689,8.95
		h-3.36l-5.244-7.285l-1.413,1.57v5.715h-2.732v-22.296h2.732V240.071z"/>
	<path fill="#527BBC" d="M280.409,246.666c0-1.162,0.785-1.979,1.884-1.979s1.853,0.816,1.853,1.979c0,1.13-0.722,1.978-1.884,1.978
		C281.163,248.644,280.409,247.796,280.409,246.666z"/>
</g>
<path id="XMLID_4_" opacity="0.8" fill="#DD1F26" d="M112.848,140.4l-24.886,24.877l-0.038-0.046l0,0l-24.84-24.871
	c-6.065-6.067-6.065-15.888,0-21.952c6.065-6.067,15.881-6.028,21.94,0l3.017,3.01l2.976-2.967c6.062-6.071,15.887-6.071,21.946,0
	C118.952,124.513,118.909,134.333,112.848,140.4z"/>
<g opacity="0.5">
	<g>
		<path id="XMLID_11967_" fill="#F6EB1D" d="M504.744,463.298l-17.428,17.428l-0.027-0.027l0,0l-17.403-17.428
			c-4.246-4.247-4.246-11.126,0-15.374c4.249-4.248,11.127-4.219,15.374,0l2.111,2.111l2.082-2.084
			c4.248-4.246,11.127-4.246,15.373,0C509.02,452.172,508.992,459.051,504.744,463.298z"/>
		<path d="M467.749,400.955v18.222c-4.166,2.084-17.429,9.1-29.732,19.212c-2.96,2.411-4.631,6-4.631,9.837v14.496
			c0,1.371,1.123,2.495,2.494,2.495c1.37,0,2.493-1.124,2.493-2.495v-14.496c0-2.329,1.04-4.521,2.822-6.001
			c12.935-10.634,26.965-17.703,29.623-19.018c1.179-0.577,1.919-1.782,1.919-3.07v-20.414c0-0.824-0.411-1.619-1.097-2.057
			c-1.973-1.315-3.151-3.508-3.151-5.864v-21.183c0-9.153,7.427-16.578,16.58-16.578h4.55c9.151,0,16.578,7.425,16.578,16.578
			v21.155c0,2.356-1.179,4.549-3.151,5.864c-0.686,0.465-1.097,1.232-1.097,2.057v20.414c0,1.288,0.768,2.521,1.918,3.07
			c2.687,1.314,16.688,8.384,29.623,19.018c1.781,1.48,2.822,3.672,2.822,6.001v14.523c0,1.371,1.124,2.495,2.495,2.495
			c1.369,0,2.493-1.124,2.493-2.495v-14.496c0-3.837-1.698-7.426-4.632-9.837c-12.305-10.112-25.567-17.101-29.732-19.212v-18.222
			c2.685-2.274,4.246-5.617,4.246-9.181v-21.155c0-11.893-9.672-21.539-21.536-21.539h-4.55c-11.895,0-21.541,9.674-21.541,21.539
			v21.155C463.502,395.338,465.064,398.681,467.749,400.955z"/>
		<path fill="#EE3F23" d="M497.098,442.252c-3.561,0-6.934,1.396-9.453,3.919l-0.328,0.329l-0.33-0.329
			c-2.521-2.522-5.891-3.919-9.454-3.919c-3.563,0-6.906,1.396-9.427,3.919c-2.521,2.521-3.919,5.864-3.919,9.454
			c0,3.562,1.398,6.906,3.919,9.426l17.43,17.43l0.026,0.027c0.466,0.465,1.097,0.74,1.755,0.74l0,0c0.656,0,1.286-0.275,1.753-0.74
			l17.428-17.43c2.522-2.521,3.919-5.864,3.919-9.426c0-3.563-1.37-6.934-3.919-9.454
			C504.004,443.648,500.662,442.252,497.098,442.252z M502.991,461.543l-15.675,15.677l-15.703-15.703
			c-1.589-1.59-2.468-3.699-2.468-5.919c0-2.248,0.879-4.33,2.44-5.919c1.589-1.59,3.672-2.438,5.919-2.438s4.358,0.876,5.948,2.466
			l2.108,2.109c0.466,0.467,1.097,0.74,1.755,0.74c0.656,0,1.286-0.273,1.753-0.74l2.082-2.082c1.591-1.59,3.699-2.466,5.919-2.466
			c2.248,0,4.331,0.876,5.921,2.466c1.589,1.589,2.466,3.698,2.438,5.919C505.457,457.845,504.58,459.954,502.991,461.543z"/>
	</g>
</g>
</svg>
