<?xml version="1.0" encoding="utf-8"?>
<!-- Generator: Adobe Illustrator 25.2.3, SVG Export Plug-In . SVG Version: 6.00 Build 0)  -->
<svg version="1.1" id="Layer_1" xmlns="http://www.w3.org/2000/svg" xmlns:xlink="http://www.w3.org/1999/xlink" x="0px" y="0px"
	 viewBox="0 0 24 34" style="enable-background:new 0 0 24 34;" xml:space="preserve" width="34">
<style type="text/css">
	.st0{fill:#FF0031;}
	.st1{fill:url(#SVGID_1_);}
	.st2{fill:url(#SVGID_2_);}
	.st3{fill:url(#SVGID_3_);}
	.st4{fill:#0062FF;}
</style>
<path class="st0" d="M7.4,9.7L7.4,9.7c-0.8,0.9-2.2,1.1-3.2,0.4l0,0c-1-0.8-1.1-2.2-0.4-3.2l0,0c0.8-1,2.2-1.1,3.2-0.4l0,0
	C8,7.3,8.2,8.7,7.4,9.7z"/>
<linearGradient id="SVGID_1_" gradientUnits="userSpaceOnUse" x1="8.756244e-02" y1="17.5294" x2="15.9898" y2="17.5294">
	<stop  offset="1.246007e-07" style="stop-color:#FFFFFF"/>
	<stop  offset="1" style="stop-color:#E92026"/>
</linearGradient>
<path class="st1" d="M15,6.4L15,6.4c-1.1-0.6-2.4-0.4-3,0.7l0,0l-2.8,4.5c-0.5,0.6-1.3,1-2,1c-1.6-0.1-2.2-1.5-2.3-1.4
	s1,0.9,1.6,2.6c0.4,1,0,2.1-0.6,3.1l-5.5,8.7c-0.6,1.1-0.4,2.4,0.7,3c1.1,0.6,2.4,0.4,3-0.7l0,0L15.7,9.4C16.3,8.5,16,7.1,15,6.4
	C15,6.5,15,6.5,15,6.4z"/>
<linearGradient id="SVGID_2_" gradientUnits="userSpaceOnUse" x1="14.6824" y1="23.4941" x2="14.6824" y2="23.4941">
	<stop  offset="1.246007e-07" style="stop-color:#FFFFFF"/>
	<stop  offset="1" style="stop-color:#101010"/>
</linearGradient>
<path class="st2" d="M14.7,23.5"/>
<linearGradient id="SVGID_3_" gradientUnits="userSpaceOnUse" x1="8.0471" y1="15.1379" x2="23.8451" y2="15.1379">
	<stop  offset="0" style="stop-color:#FFFFFF"/>
	<stop  offset="1" style="stop-color:#1B49FF"/>
</linearGradient>
<path class="st3" d="M22.9,5.4c-1.1-0.6-2.4-0.4-3,0.7l0,0L8.3,24.6C8.2,24.8,8.1,25,8,25.3c0.1-0.2,0.1-0.4,0.3-0.5
	c1.1-1.7,2.3-1.2,5.4-2.8c1.3-0.7,2.5-1.8,3.2-3l6.6-10.7C24.1,7.3,23.9,6,22.9,5.4z"/>
<path class="st4" d="M12.6,27.5L12.6,27.5c-0.8,1-2.2,1.1-3.2,0.4l0,0c-1-0.8-1.1-2.2-0.4-3.2l0,0c0.8-1,2.2-1.1,3.2-0.4l0,0
	C13.2,25.1,13.3,26.5,12.6,27.5z"/>
</svg>
