<?xml version="1.0" encoding="utf-8"?>
<!-- Generator: Adobe Illustrator 16.0.0, SVG Export Plug-In . SVG Version: 6.00 Build 0)  -->
<!DOCTYPE svg PUBLIC "-//W3C//DTD SVG 1.1//EN" "http://www.w3.org/Graphics/SVG/1.1/DTD/svg11.dtd">
<svg version="1.1" id="Layer_1" xmlns="http://www.w3.org/2000/svg" xmlns:xlink="http://www.w3.org/1999/xlink" x="0px" y="0px"
	 width="566.93px" height="566.93px" viewBox="0 0 566.93 566.93" enable-background="new 0 0 566.93 566.93" xml:space="preserve">
<g>
	<g>
		<path fill="#FFFFFF" d="M323.882,564.153l64.208-63.872c4.974-4.947,9.036-8.995,9.024-8.995c-0.008,0-0.015-5.739-0.015-12.755
			l0.008-211.313c0-7.015-5.739-12.754-12.755-12.754H190.89c-7.015,0-12.754,5.74-12.754,12.754V551.4
			c0,7.016,5.74,12.755,12.754,12.755L323.882,564.153"/>
		<path fill="none" stroke="#3B4DA1" stroke-width="3.8261" stroke-miterlimit="10" d="M323.882,564.153l64.208-63.872
			c4.974-4.947,9.036-8.995,9.024-8.995c-0.008,0-0.015-5.739-0.015-12.755l0.008-211.313c0-7.015-5.739-12.754-12.755-12.754
			H190.89c-7.015,0-12.754,5.74-12.754,12.754V551.4c0,7.016,5.74,12.755,12.754,12.755L323.882,564.153"/>
	</g>
	<g>
		<path fill="none" stroke="#56A0D7" stroke-width="3.8261" stroke-miterlimit="10" d="M371.178,347.258v-54.451
			c0-7.016-5.739-12.755-12.755-12.755h-54.61"/>
	</g>
	<polyline fill="#42C5E6" stroke="#3B4DA1" stroke-width="3.8261" stroke-miterlimit="10" points="322.362,563.465 322.362,490.512 
		395.314,490.512 	"/>
	
		<rect x="199.434" y="429.212" fill="none" stroke="#3B4DA1" stroke-width="3.8261" stroke-miterlimit="10" width="28.313" height="28.313"/>
	
		<rect x="199.434" y="476.355" fill="none" stroke="#3B4DA1" stroke-width="3.8261" stroke-miterlimit="10" width="28.313" height="28.313"/>
	<polyline fill="none" stroke="#3B4DA1" stroke-width="3.8261" stroke-miterlimit="10" points="199.434,394.398 208.348,403.307 
		229.554,382.105 	"/>
</g>
<g>
	<g>
		<path fill="#FFFFFF" d="M240.337,313.95l64.21-63.871c4.974-4.947,9.033-8.995,9.024-8.995c-0.008,0-0.015-5.74-0.015-12.754
			l0.006-211.315c0-7.015-5.739-12.754-12.755-12.754H107.344c-7.015,0-12.754,5.74-12.754,12.754v284.181
			c0,7.016,5.74,12.755,12.754,12.755L240.337,313.95"/>
		<path fill="none" stroke="#86C440" stroke-width="3.8261" stroke-miterlimit="10" d="M240.337,313.95l64.21-63.871
			c4.974-4.947,9.033-8.995,9.024-8.995c-0.008,0-0.015-5.74-0.015-12.754l0.006-211.315c0-7.015-5.739-12.754-12.755-12.754
			H107.344c-7.015,0-12.754,5.74-12.754,12.754v284.181c0,7.016,5.74,12.755,12.754,12.755L240.337,313.95"/>
	</g>
	<g>
		<path fill="none" stroke="#8DC73F" stroke-width="3.8261" stroke-miterlimit="10" d="M287.635,97.056V42.604
			c0-7.015-5.74-12.754-12.754-12.754h-54.614"/>
	</g>
	<polyline fill="#86C440" stroke="#3B4DA1" stroke-width="3.8261" stroke-miterlimit="10" points="238.815,313.262 238.815,240.309 
		311.77,240.309 	"/>
	
		<rect x="115.889" y="126.829" fill="none" stroke="#3DC7F4" stroke-width="3.8261" stroke-miterlimit="10" width="28.313" height="28.31"/>
	
		<rect x="115.889" y="226.154" fill="none" stroke="#3DC7F4" stroke-width="3.8261" stroke-miterlimit="10" width="28.313" height="28.31"/>
	<polyline fill="none" stroke="#3DC7F4" stroke-width="3.8261" stroke-miterlimit="10" points="115.889,192.85 124.802,201.758 
		146.009,180.555 	"/>
</g>
<g>
	<g>
		<path fill="#FFFFFF" d="M421.039,423.65l64.211-63.873c4.974-4.946,9.033-8.994,9.024-8.994c-0.008,0-0.015-5.739-0.015-12.756
			l0.005-211.314c0-7.015-5.739-12.754-12.755-12.754H288.046c-7.018,0-12.754,5.74-12.754,12.754v284.182
			c0,7.019,5.737,12.758,12.754,12.758L421.039,423.65"/>
		<path fill="none" stroke="#3B4DA1" stroke-width="3.8261" stroke-miterlimit="10" d="M421.039,423.65l64.211-63.873
			c4.974-4.946,9.033-8.994,9.024-8.994c-0.008,0-0.015-5.739-0.015-12.756l0.005-211.314c0-7.015-5.739-12.754-12.755-12.754
			H288.046c-7.018,0-12.754,5.74-12.754,12.754v284.182c0,7.019,5.737,12.758,12.754,12.758L421.039,423.65"/>
	</g>
	<g>
		<path fill="none" stroke="#56A0D7" stroke-width="3.8261" stroke-miterlimit="10" d="M468.337,206.755l0.002-54.453
			c0-7.015-5.739-12.754-12.755-12.754h-54.616"/>
	</g>
	<polyline fill="#FFE389" stroke="#3B4DA1" stroke-width="3.8261" stroke-miterlimit="10" points="419.52,422.964 419.52,350.008 
		492.472,350.008 	"/>
	
		<rect x="296.593" y="288.708" fill="none" stroke="#3B4DA1" stroke-width="3.8261" stroke-miterlimit="10" width="28.31" height="28.31"/>
	
		<rect x="296.593" y="335.854" fill="none" stroke="#3B4DA1" stroke-width="3.8261" stroke-miterlimit="10" width="28.31" height="28.312"/>
	<polyline fill="none" stroke="#3B4DA1" stroke-width="3.8261" stroke-miterlimit="10" points="296.593,253.896 305.506,262.805 
		326.712,241.602 	"/>
</g>
<rect x="112.905" y="50.587" fill="none" width="201.369" height="46.469"/>
<g enable-background="new    ">
	<path fill="#243D97" d="M126.666,51.495v11.039c0,1.755-0.562,3.145-1.685,4.169c-1.124,1.025-2.619,1.537-4.487,1.537
		c-1.891,0-3.392-0.505-4.504-1.515s-1.668-2.41-1.668-4.203V51.495h2.859v11.033c0,1.103,0.279,1.944,0.839,2.525
		c0.56,0.582,1.384,0.872,2.473,0.872c2.208,0,3.313-1.162,3.313-3.488V51.495H126.666z"/>
	<path fill="#243D97" d="M138.363,63.759c0-0.726-0.255-1.285-0.766-1.679c-0.51-0.394-1.431-0.79-2.762-1.191
		c-1.332-0.4-2.39-0.847-3.177-1.339c-1.505-0.945-2.258-2.178-2.258-3.698c0-1.331,0.542-2.428,1.628-3.29s2.494-1.293,4.226-1.293
		c1.15,0,2.174,0.211,3.075,0.635c0.9,0.424,1.607,1.027,2.122,1.81c0.514,0.783,0.771,1.65,0.771,2.604h-2.859
		c0-0.854-0.271-1.524-0.812-2.008c-0.541-0.484-1.314-0.726-2.32-0.726c-0.938,0-1.666,0.199-2.184,0.599s-0.777,0.956-0.777,1.672
		c0,0.603,0.28,1.105,0.84,1.509c0.56,0.402,1.482,0.794,2.768,1.175c1.286,0.38,2.318,0.814,3.097,1.303
		c0.779,0.487,1.35,1.047,1.713,1.679c0.363,0.632,0.544,1.371,0.544,2.218c0,1.377-0.527,2.472-1.583,3.284
		c-1.055,0.813-2.487,1.22-4.294,1.22c-1.195,0-2.293-0.221-3.295-0.663c-1.002-0.442-1.781-1.054-2.337-1.833
		c-0.556-0.778-0.834-1.687-0.834-2.723h2.871c0,0.938,0.31,1.664,0.93,2.179s1.509,0.771,2.666,0.771
		c0.999,0,1.749-0.202,2.252-0.607C138.111,64.96,138.363,64.425,138.363,63.759z"/>
	<path fill="#243D97" d="M153.406,60.64h-6.785v5.06h7.93v2.314h-10.8V51.495h10.721v2.314h-7.851v4.561h6.785V60.64z"/>
	<path fill="#243D97" d="M162.959,61.66h-3.2v6.354h-2.87V51.495h5.809c1.906,0,3.377,0.428,4.414,1.283
		c1.036,0.855,1.554,2.093,1.554,3.713c0,1.105-0.267,2.03-0.8,2.776c-0.533,0.745-1.276,1.319-2.229,1.72l3.71,6.879v0.147h-3.075
		L162.959,61.66z M159.76,59.346h2.95c0.968,0,1.725-0.244,2.269-0.731c0.545-0.488,0.817-1.155,0.817-2.003
		c0-0.885-0.251-1.569-0.754-2.053c-0.503-0.484-1.253-0.733-2.252-0.749h-3.029V59.346z"/>
	<path fill="#243D97" d="M184.197,68.014h-2.746V54.743l-4.05,1.381V53.81l6.444-2.371h0.352V68.014z"/>
</g>
<rect x="294.631" y="167.922" fill="none" width="201.365" height="46.471"/>
<g enable-background="new    ">
	<path fill="#243D97" d="M308.393,168.829v11.039c0,1.755-0.562,3.145-1.685,4.169c-1.124,1.025-2.619,1.537-4.487,1.537
		c-1.891,0-3.393-0.505-4.504-1.515s-1.668-2.41-1.668-4.203v-11.027h2.859v11.033c0,1.103,0.279,1.944,0.84,2.525
		c0.559,0.582,1.384,0.872,2.473,0.872c2.209,0,3.313-1.162,3.313-3.488v-10.942H308.393z"/>
	<path fill="#243D97" d="M320.09,181.093c0-0.726-0.256-1.285-0.766-1.679c-0.511-0.394-1.432-0.79-2.763-1.191
		c-1.331-0.4-2.39-0.847-3.177-1.339c-1.506-0.945-2.258-2.178-2.258-3.698c0-1.331,0.543-2.428,1.628-3.29s2.494-1.293,4.226-1.293
		c1.15,0,2.175,0.211,3.075,0.635c0.899,0.424,1.606,1.027,2.122,1.81c0.514,0.783,0.771,1.65,0.771,2.604h-2.859
		c0-0.854-0.271-1.524-0.812-2.008c-0.54-0.484-1.313-0.726-2.319-0.726c-0.938,0-1.666,0.199-2.185,0.599s-0.777,0.956-0.777,1.672
		c0,0.603,0.28,1.105,0.84,1.509c0.56,0.402,1.482,0.794,2.769,1.175c1.285,0.38,2.318,0.814,3.097,1.303
		c0.779,0.487,1.351,1.047,1.714,1.679c0.362,0.632,0.544,1.371,0.544,2.218c0,1.377-0.527,2.472-1.583,3.284
		c-1.055,0.813-2.486,1.22-4.294,1.22c-1.194,0-2.294-0.221-3.296-0.663s-1.781-1.054-2.337-1.833
		c-0.556-0.778-0.834-1.687-0.834-2.723h2.87c0,0.938,0.311,1.664,0.931,2.179s1.509,0.771,2.666,0.771
		c0.999,0,1.749-0.202,2.252-0.607C319.838,182.294,320.09,181.759,320.09,181.093z"/>
	<path fill="#243D97" d="M335.133,177.974h-6.784v5.06h7.931v2.314h-10.801v-16.519h10.721v2.314h-7.851v4.561h6.784V177.974z"/>
	<path fill="#243D97" d="M344.686,178.994h-3.199v6.354h-2.87v-16.519h5.809c1.906,0,3.377,0.428,4.413,1.283
		c1.037,0.855,1.555,2.093,1.555,3.713c0,1.105-0.267,2.03-0.8,2.776c-0.533,0.745-1.276,1.319-2.229,1.72l3.71,6.879v0.147h-3.075
		L344.686,178.994z M341.487,176.68h2.949c0.969,0,1.725-0.244,2.27-0.731c0.545-0.488,0.816-1.155,0.816-2.003
		c0-0.885-0.251-1.569-0.754-2.053c-0.503-0.484-1.254-0.733-2.252-0.749h-3.029V176.68z"/>
	<path fill="#243D97" d="M369.567,185.348h-11.107v-1.895l5.502-6.002c0.795-0.885,1.359-1.624,1.696-2.218s0.505-1.189,0.505-1.787
		c0-0.786-0.221-1.422-0.664-1.905c-0.441-0.484-1.037-0.727-1.787-0.727c-0.893,0-1.584,0.272-2.076,0.816
		c-0.491,0.545-0.736,1.29-0.736,2.235h-2.758c0-1.006,0.229-1.911,0.688-2.717c0.457-0.806,1.111-1.432,1.962-1.878
		s1.833-0.669,2.944-0.669c1.604,0,2.868,0.402,3.795,1.208c0.926,0.806,1.39,1.919,1.39,3.341c0,0.824-0.232,1.688-0.698,2.593
		c-0.465,0.903-1.227,1.931-2.285,3.08l-4.039,4.322h7.67V185.348z"/>
</g>
<path id="XMLID_2_" opacity="0.2" fill="#F36C21" enable-background="new    " d="M443.823,263.608L419.5,287.924l-0.034-0.045l0,0
	l-24.278-24.307c-5.928-5.932-5.928-15.527,0-21.456c5.927-5.93,15.521-5.89,21.444,0l2.945,2.944l2.906-2.903
	c5.927-5.932,15.528-5.932,21.451,0C449.788,248.08,449.746,257.678,443.823,263.608z"/>
<path id="XMLID_1_" opacity="0.2" fill="#F36C21" enable-background="new    " d="M263.121,151.792l-24.324,24.317l-0.036-0.046l0,0
	l-24.279-24.307c-5.928-5.932-5.928-15.528,0-21.456c5.931-5.929,15.522-5.89,21.445,0l2.947,2.944l2.908-2.903
	c5.926-5.931,15.525-5.931,21.448,0C269.087,136.264,269.045,145.862,263.121,151.792z"/>
</svg>
