<?xml version="1.0" encoding="utf-8"?>
<!-- Generator: Adobe Illustrator 16.0.0, SVG Export Plug-In . SVG Version: 6.00 Build 0)  -->
<!DOCTYPE svg PUBLIC "-//W3C//DTD SVG 1.1//EN" "http://www.w3.org/Graphics/SVG/1.1/DTD/svg11.dtd">
<svg version="1.1" id="Layer_1" xmlns="http://www.w3.org/2000/svg" xmlns:xlink="http://www.w3.org/1999/xlink" x="0px" y="0px"
	 width="566.93px" height="566.93px" viewBox="0 0 566.93 566.93" enable-background="new 0 0 566.93 566.93" xml:space="preserve">
<path fill="none" stroke="#86C440" stroke-width="3.5681" stroke-miterlimit="10" d="M18.135,201.3H545.87
	c6.404,0,11.599,5.191,11.599,11.598v96.284c0,6.404-5.194,11.599-11.599,11.599h-43.848l-10.666,21.827l-12.47-21.827H18.135
	c-6.406,0-11.6-5.194-11.6-11.599v-96.284C6.536,206.492,11.73,201.3,18.135,201.3z"/>
<rect x="149.285" y="35.454" fill="none" width="384.984" height="91.749"/>
<g opacity="0.7" enable-background="new    ">
	<path fill="#231F20" d="M154.579,36.618v9.162h10.589v-9.162h2.858v21.895h-2.858V48.247h-10.589v10.265h-2.827V36.618H154.579z"/>
	<path fill="#231F20" d="M174.42,51.171c0.065,3.865,2.534,5.458,5.393,5.458c2.046,0,3.281-0.358,4.353-0.813l0.488,2.046
		c-1.007,0.453-2.729,0.974-5.23,0.974c-4.84,0-7.731-3.183-7.731-7.926c0-4.741,2.794-8.478,7.374-8.478
		c5.133,0,6.497,4.515,6.497,7.405c0,0.585-0.064,1.041-0.098,1.333H174.42z M182.802,49.124c0.032-1.82-0.748-4.645-3.963-4.645
		c-2.891,0-4.158,2.663-4.386,4.645H182.802z"/>
	<path fill="#231F20" d="M190.14,42.79l3.442,9.29c0.357,1.041,0.747,2.274,1.007,3.216h0.065c0.292-0.942,0.617-2.145,1.007-3.28
		l3.118-9.226h3.02l-4.287,11.206c-2.046,5.393-3.443,8.154-5.392,9.844c-1.396,1.234-2.794,1.722-3.508,1.852l-0.716-2.404
		c0.716-0.228,1.657-0.682,2.501-1.396c0.78-0.618,1.754-1.721,2.405-3.183c0.13-0.293,0.228-0.52,0.228-0.683
		c0-0.162-0.065-0.39-0.195-0.748l-5.814-14.488H190.14z"/>
	<path fill="#231F20" d="M210.727,56.854c0-1.169,0.813-2.014,1.917-2.014c1.169,0,1.917,0.844,1.917,2.014
		c0,1.138-0.748,2.016-1.917,2.016C211.508,58.87,210.727,57.992,210.727,56.854z M211.54,52.209l-0.454-15.592h3.118l-0.455,15.592
		H211.54z"/>
	<path fill="#231F20" d="M235.442,36.618v21.895h-2.826V36.618H235.442z"/>
	<path fill="#231F20" d="M244.242,38.274v4.516h4.093v2.177h-4.093v8.477c0,1.951,0.552,3.055,2.144,3.055
		c0.747,0,1.298-0.097,1.657-0.196l0.13,2.145c-0.552,0.228-1.43,0.39-2.534,0.39c-1.332,0-2.403-0.422-3.086-1.201
		c-0.812-0.844-1.104-2.241-1.104-4.095v-8.574h-2.436V42.79h2.436v-3.769L244.242,38.274z"/>
	<path fill="#231F20" d="M251.158,55.588c0.844,0.552,2.339,1.137,3.768,1.137c2.079,0,3.054-1.041,3.054-2.34
		c0-1.363-0.812-2.11-2.923-2.89c-2.827-1.007-4.158-2.566-4.158-4.451c0-2.535,2.047-4.612,5.425-4.612
		c1.591,0,2.988,0.454,3.866,0.974l-0.715,2.08c-0.617-0.39-1.754-0.91-3.216-0.91c-1.689,0-2.63,0.976-2.63,2.144
		c0,1.299,0.941,1.883,2.987,2.663c2.729,1.041,4.125,2.405,4.125,4.744c0,2.761-2.143,4.71-5.879,4.71
		c-1.722,0-3.313-0.422-4.418-1.072L251.158,55.588z"/>
	<path fill="#231F20" d="M274.738,38.274v4.516h4.092v2.177h-4.092v8.477c0,1.951,0.55,3.055,2.145,3.055
		c0.746,0,1.298-0.097,1.655-0.196l0.129,2.145c-0.55,0.228-1.428,0.39-2.532,0.39c-1.333,0-2.405-0.422-3.086-1.201
		c-0.813-0.844-1.105-2.241-1.105-4.095v-8.574h-2.435V42.79h2.435v-3.769L274.738,38.274z"/>
	<path fill="#231F20" d="M285.228,38.371c0.03,0.975-0.684,1.755-1.822,1.755c-1.006,0-1.72-0.78-1.72-1.755
		c0-1.007,0.748-1.786,1.786-1.786C284.544,36.584,285.228,37.364,285.228,38.371z M282.042,58.512V42.79h2.86v15.723H282.042z"/>
	<path fill="#231F20" d="M289.642,47.045c0-1.625-0.032-2.956-0.13-4.255h2.5l0.131,2.534h0.1c0.876-1.495,2.337-2.891,4.936-2.891
		c2.145,0,3.768,1.298,4.451,3.15h0.063c0.486-0.876,1.104-1.559,1.755-2.046c0.943-0.716,1.981-1.104,3.476-1.104
		c2.078,0,5.166,1.364,5.166,6.822v9.258h-2.795v-8.901c0-3.021-1.105-4.839-3.411-4.839c-1.623,0-2.891,1.201-3.377,2.598
		c-0.131,0.39-0.229,0.91-0.229,1.43v9.713h-2.793v-9.42c0-2.502-1.104-4.321-3.282-4.321c-1.785,0-3.084,1.429-3.54,2.858
		c-0.162,0.421-0.227,0.908-0.227,1.397v9.485h-2.794V47.045z"/>
	<path fill="#231F20" d="M318.318,51.171c0.067,3.865,2.536,5.458,5.394,5.458c2.047,0,3.282-0.358,4.353-0.813l0.49,2.046
		c-1.012,0.453-2.731,0.974-5.231,0.974c-4.843,0-7.731-3.183-7.731-7.926c0-4.741,2.794-8.478,7.373-8.478
		c5.133,0,6.496,4.515,6.496,7.405c0,0.585-0.064,1.041-0.096,1.333H318.318z M326.7,49.124c0.031-1.82-0.748-4.645-3.964-4.645
		c-2.892,0-4.158,2.663-4.385,4.645H326.7z"/>
	<path fill="#231F20" d="M343.326,38.274v4.516h4.092v2.177h-4.092v8.477c0,1.951,0.55,3.055,2.146,3.055
		c0.745,0,1.298-0.097,1.654-0.196l0.128,2.145c-0.55,0.228-1.428,0.39-2.531,0.39c-1.334,0-2.405-0.422-3.085-1.201
		c-0.813-0.844-1.107-2.241-1.107-4.095v-8.574h-2.435V42.79h2.435v-3.769L343.326,38.274z"/>
	<path fill="#231F20" d="M364.664,50.521c0,5.815-4.027,8.35-7.827,8.35c-4.256,0-7.537-3.12-7.537-8.089
		c0-5.264,3.443-8.349,7.796-8.349C361.612,42.433,364.664,45.713,364.664,50.521z M352.191,50.683c0,3.444,1.983,6.043,4.774,6.043
		c2.729,0,4.777-2.568,4.777-6.108c0-2.662-1.332-6.041-4.712-6.041C353.653,44.576,352.191,47.696,352.191,50.683z"/>
	<path fill="#231F20" d="M386.359,57.926c-0.748,0.39-2.405,0.91-4.517,0.91c-4.743,0-7.829-3.216-7.829-8.023
		c0-4.84,3.315-8.348,8.446-8.348c1.689,0,3.185,0.422,3.964,0.812l-0.648,2.209c-0.685-0.39-1.757-0.748-3.315-0.748
		c-3.604,0-5.557,2.664-5.557,5.944c0,3.64,2.339,5.881,5.458,5.881c1.625,0,2.697-0.423,3.509-0.779L386.359,57.926z"/>
	<path fill="#231F20" d="M389.7,35.447h2.856v9.812h0.065c0.455-0.813,1.17-1.527,2.045-2.013c0.847-0.489,1.854-0.813,2.925-0.813
		c2.113,0,5.491,1.298,5.491,6.723v9.357h-2.859v-9.03c0-2.535-0.943-4.678-3.639-4.678c-1.852,0-3.313,1.299-3.831,2.858
		c-0.163,0.389-0.197,0.813-0.197,1.365v9.485H389.7V35.447z"/>
	<path fill="#231F20" d="M409.315,51.171c0.065,3.865,2.533,5.458,5.394,5.458c2.044,0,3.279-0.358,4.352-0.813l0.486,2.046
		c-1.005,0.453-2.726,0.974-5.228,0.974c-4.842,0-7.732-3.183-7.732-7.926c0-4.741,2.794-8.478,7.373-8.478
		c5.134,0,6.498,4.515,6.498,7.405c0,0.585-0.064,1.041-0.098,1.333H409.315z M417.696,49.124c0.032-1.82-0.747-4.645-3.96-4.645
		c-2.894,0-4.159,2.663-4.39,4.645H417.696z"/>
	<path fill="#231F20" d="M435.2,57.926c-0.746,0.39-2.405,0.91-4.517,0.91c-4.743,0-7.828-3.216-7.828-8.023
		c0-4.84,3.314-8.348,8.446-8.348c1.688,0,3.184,0.422,3.964,0.812l-0.649,2.209c-0.683-0.39-1.753-0.748-3.314-0.748
		c-3.604,0-5.556,2.664-5.556,5.944c0,3.64,2.339,5.881,5.459,5.881c1.624,0,2.695-0.423,3.508-0.779L435.2,57.926z"/>
	<path fill="#231F20" d="M441.369,50h0.063c0.394-0.552,0.943-1.235,1.397-1.787l4.613-5.424h3.445l-6.076,6.465l6.92,9.258h-3.477
		l-5.426-7.537l-1.46,1.625v5.913h-2.828V35.447h2.828V50z"/>
	<path fill="#231F20" d="M461.698,42.79l3.44,9.29c0.36,1.041,0.749,2.274,1.009,3.216h0.064c0.292-0.942,0.619-2.145,1.009-3.28
		l3.117-9.226h3.023l-4.289,11.206c-2.047,5.393-3.443,8.154-5.393,9.844c-1.397,1.234-2.794,1.722-3.509,1.852l-0.716-2.404
		c0.716-0.228,1.657-0.682,2.501-1.396c0.782-0.618,1.755-1.721,2.403-3.183c0.131-0.293,0.229-0.52,0.229-0.683
		c0-0.162-0.066-0.39-0.194-0.748L458.58,42.79H461.698z"/>
	<path fill="#231F20" d="M489.857,50.521c0,5.815-4.027,8.35-7.826,8.35c-4.259,0-7.538-3.12-7.538-8.089
		c0-5.264,3.442-8.349,7.796-8.349C486.805,42.433,489.857,45.713,489.857,50.521z M477.384,50.683c0,3.444,1.98,6.043,4.774,6.043
		c2.729,0,4.774-2.568,4.774-6.108c0-2.662-1.33-6.041-4.71-6.041C478.846,44.576,477.384,47.696,477.384,50.683z"/>
	<path fill="#231F20" d="M506.615,54.224c0,1.624,0.031,3.054,0.129,4.289h-2.532l-0.165-2.566h-0.064
		c-0.748,1.266-2.402,2.924-5.196,2.924c-2.471,0-5.427-1.365-5.427-6.888V42.79h2.859v8.707c0,2.988,0.909,5.002,3.508,5.002
		c1.918,0,3.25-1.332,3.771-2.599c0.16-0.421,0.258-0.942,0.258-1.462V42.79h2.859V54.224z"/>
	<path fill="#231F20" d="M511.354,47.696c0-1.854-0.033-3.444-0.134-4.906h2.506l0.096,3.086h0.128
		c0.717-2.112,2.438-3.443,4.354-3.443c0.325,0,0.553,0.032,0.813,0.096v2.696c-0.294-0.063-0.585-0.097-0.974-0.097
		c-2.014,0-3.446,1.527-3.834,3.671c-0.066,0.39-0.13,0.844-0.13,1.332v8.381h-2.825V47.696z"/>
</g>
<g opacity="0.7" enable-background="new    ">
	<path fill="#231F20" d="M151.525,97.482c0.065-1.072,0.13-2.665,0.13-4.061V74.417h2.825v9.876h0.066
		c1.007-1.754,2.826-2.892,5.36-2.892c3.897,0,6.659,3.248,6.627,8.023c0,5.62-3.542,8.415-7.049,8.415
		c-2.274,0-4.093-0.878-5.263-2.958h-0.098l-0.13,2.6H151.525z M154.481,91.18c0,0.358,0.066,0.714,0.13,1.041
		c0.553,1.98,2.209,3.345,4.288,3.345c2.988,0,4.776-2.437,4.776-6.041c0-3.151-1.625-5.848-4.679-5.848
		c-1.948,0-3.768,1.332-4.352,3.508c-0.064,0.324-0.163,0.716-0.163,1.168V91.18z"/>
	<path fill="#231F20" d="M170.134,74.417h2.859v23.065h-2.859V74.417z"/>
	<path fill="#231F20" d="M192.026,89.491c0,5.816-4.028,8.35-7.829,8.35c-4.256,0-7.537-3.119-7.537-8.089
		c0-5.264,3.444-8.35,7.797-8.35C188.972,81.402,192.026,84.685,192.026,89.491z M179.551,89.653c0,3.444,1.982,6.043,4.775,6.043
		c2.729,0,4.775-2.567,4.775-6.108c0-2.663-1.331-6.042-4.71-6.042C181.013,83.546,179.551,86.666,179.551,89.653z"/>
	<path fill="#231F20" d="M209.855,89.491c0,5.816-4.028,8.35-7.829,8.35c-4.255,0-7.536-3.119-7.536-8.089
		c0-5.264,3.444-8.35,7.797-8.35C206.801,81.402,209.855,84.685,209.855,89.491z M197.381,89.653c0,3.444,1.982,6.043,4.775,6.043
		c2.729,0,4.775-2.567,4.775-6.108c0-2.663-1.332-6.042-4.71-6.042C198.843,83.546,197.381,86.666,197.381,89.653z"/>
	<path fill="#231F20" d="M227.034,74.417v19.004c0,1.396,0.032,2.989,0.131,4.061h-2.567l-0.129-2.728h-0.065
		c-0.877,1.753-2.794,3.086-5.359,3.086c-3.801,0-6.725-3.217-6.725-7.992c-0.033-5.23,3.216-8.446,7.049-8.446
		c2.404,0,4.028,1.137,4.742,2.403h0.065v-9.388H227.034z M224.176,88.16c0-0.358-0.033-0.845-0.129-1.203
		c-0.422-1.818-1.982-3.313-4.125-3.313c-2.957,0-4.711,2.599-4.711,6.075c0,3.185,1.56,5.816,4.646,5.816
		c1.917,0,3.67-1.269,4.191-3.412c0.097-0.39,0.129-0.779,0.129-1.234V88.16z"/>
	<path fill="#231F20" d="M238.657,86.892c0-2.014-0.066-3.638-0.131-5.132h2.567l0.129,2.696h0.066
		c1.168-1.917,3.02-3.054,5.586-3.054c3.801,0,6.66,3.216,6.66,7.992c0,5.651-3.443,8.446-7.147,8.446
		c-2.079,0-3.898-0.91-4.84-2.47h-0.064v8.544h-2.826V86.892z M241.483,91.083c0,0.421,0.064,0.811,0.129,1.169
		c0.52,1.982,2.242,3.347,4.289,3.347c3.021,0,4.775-2.471,4.775-6.075c0-3.151-1.657-5.848-4.678-5.848
		c-1.949,0-3.769,1.397-4.321,3.541c-0.097,0.356-0.194,0.779-0.194,1.169V91.083z"/>
	<path fill="#231F20" d="M257.135,86.666c0-1.853-0.032-3.443-0.13-4.906h2.501l0.098,3.087h0.129
		c0.716-2.113,2.437-3.444,4.353-3.444c0.326,0,0.552,0.033,0.813,0.097v2.697c-0.292-0.064-0.585-0.097-0.975-0.097
		c-2.014,0-3.444,1.527-3.834,3.671c-0.064,0.39-0.129,0.845-0.129,1.332v8.381h-2.826V86.666z"/>
	<path fill="#231F20" d="M269.021,90.142c0.068,3.866,2.536,5.458,5.393,5.458c2.048,0,3.282-0.358,4.354-0.813l0.488,2.047
		c-1.009,0.453-2.729,0.974-5.23,0.974c-4.842,0-7.732-3.183-7.732-7.927c0-4.742,2.795-8.478,7.374-8.478
		c5.133,0,6.496,4.516,6.496,7.406c0,0.586-0.065,1.04-0.097,1.333H269.021z M277.405,88.095c0.031-1.819-0.748-4.646-3.964-4.646
		c-2.893,0-4.158,2.663-4.386,4.646H277.405z"/>
	<path fill="#231F20" d="M283.31,94.559c0.845,0.553,2.339,1.138,3.77,1.138c2.078,0,3.054-1.041,3.054-2.34
		c0-1.363-0.813-2.111-2.924-2.891c-2.826-1.007-4.159-2.565-4.159-4.45c0-2.534,2.045-4.613,5.424-4.613
		c1.592,0,2.989,0.455,3.865,0.975l-0.715,2.079c-0.616-0.39-1.755-0.91-3.214-0.91c-1.689,0-2.631,0.975-2.631,2.145
		c0,1.3,0.941,1.883,2.987,2.662c2.73,1.042,4.126,2.406,4.126,4.744c0,2.761-2.146,4.71-5.88,4.71
		c-1.723,0-3.314-0.422-4.419-1.073L283.31,94.559z"/>
	<path fill="#231F20" d="M296.171,94.559c0.844,0.553,2.337,1.138,3.767,1.138c2.08,0,3.055-1.041,3.055-2.34
		c0-1.363-0.813-2.111-2.924-2.891c-2.826-1.007-4.158-2.565-4.158-4.45c0-2.534,2.047-4.613,5.427-4.613
		c1.59,0,2.986,0.455,3.865,0.975l-0.717,2.079c-0.616-0.39-1.751-0.91-3.216-0.91c-1.689,0-2.631,0.975-2.631,2.145
		c0,1.3,0.941,1.883,2.989,2.662c2.728,1.042,4.124,2.406,4.124,4.744c0,2.761-2.143,4.71-5.88,4.71
		c-1.72,0-3.311-0.422-4.416-1.073L296.171,94.559z"/>
	<path fill="#231F20" d="M322.577,93.194c0,1.624,0.033,3.054,0.13,4.288h-2.534l-0.162-2.565h-0.065
		c-0.746,1.266-2.404,2.924-5.196,2.924c-2.47,0-5.426-1.365-5.426-6.888V81.76h2.858v8.706c0,2.989,0.91,5.003,3.51,5.003
		c1.914,0,3.247-1.332,3.766-2.599c0.164-0.422,0.261-0.942,0.261-1.462V81.76h2.859V93.194z"/>
	<path fill="#231F20" d="M327.315,86.666c0-1.853-0.032-3.443-0.132-4.906h2.503l0.099,3.087h0.129
		c0.717-2.113,2.438-3.444,4.353-3.444c0.326,0,0.553,0.033,0.813,0.097v2.697c-0.291-0.064-0.583-0.097-0.977-0.097
		c-2.012,0-3.44,1.527-3.834,3.671c-0.063,0.39-0.128,0.845-0.128,1.332v8.381h-2.826V86.666z"/>
	<path fill="#231F20" d="M339.201,90.142c0.064,3.866,2.534,5.458,5.392,5.458c2.048,0,3.284-0.358,4.354-0.813l0.487,2.047
		c-1.009,0.453-2.73,0.974-5.23,0.974c-4.84,0-7.729-3.183-7.729-7.927c0-4.742,2.791-8.478,7.372-8.478
		c5.132,0,6.497,4.516,6.497,7.406c0,0.586-0.063,1.04-0.098,1.333H339.201z M347.582,88.095c0.031-1.819-0.749-4.646-3.963-4.646
		c-2.892,0-4.158,2.663-4.385,4.646H347.582z"/>
</g>
<rect x="40.943" y="38.452" fill="none" width="75.839" height="75.652"/>
<g enable-background="new    ">
	<path fill="#FAEE52" d="M56.113,40.395v1.883L46.919,61.51h-2.956l9.161-18.68v-0.063H42.793v-2.372H56.113z"/>
	<path fill="#FAEE52" d="M59.29,48.387c0-1.203,0.813-2.047,1.95-2.047c1.136,0,1.883,0.845,1.916,2.047
		c0,1.135-0.746,2.014-1.948,2.014C60.071,50.4,59.29,49.522,59.29,48.387z M59.29,59.852c0-1.2,0.813-2.045,1.95-2.045
		c1.136,0,1.883,0.845,1.916,2.045c0,1.138-0.746,2.016-1.948,2.016C60.071,61.868,59.29,60.99,59.29,59.852z"/>
	<path fill="#FAEE52" d="M79.819,50.725c0,7.178-2.664,11.143-7.341,11.143c-4.125,0-6.919-3.867-6.985-10.851
		c0-7.081,3.055-10.98,7.342-10.98C77.285,40.037,79.819,44.001,79.819,50.725z M68.352,51.049c0,5.489,1.689,8.609,4.288,8.609
		c2.923,0,4.32-3.41,4.32-8.803c0-5.198-1.332-8.609-4.288-8.609C70.171,42.247,68.352,45.299,68.352,51.049z"/>
	<path fill="#FAEE52" d="M96.478,50.725c0,7.178-2.663,11.143-7.34,11.143c-4.125,0-6.919-3.867-6.985-10.851
		c0-7.081,3.054-10.98,7.342-10.98C93.946,40.037,96.478,44.001,96.478,50.725z M85.012,51.049c0,5.489,1.689,8.609,4.288,8.609
		c2.924,0,4.32-3.41,4.32-8.803c0-5.198-1.332-8.609-4.288-8.609C86.831,42.247,85.012,45.299,85.012,51.049z"/>
</g>
<g enable-background="new    ">
	<path fill="#FAEE52" d="M46.951,93.595l-2.273,6.885h-2.923l7.438-21.894h3.411l7.471,21.894h-3.021l-2.338-6.885H46.951z
		 M54.132,91.385l-2.144-6.303c-0.488-1.43-0.813-2.727-1.138-3.995h-0.064c-0.326,1.299-0.683,2.631-1.105,3.964l-2.145,6.334
		H54.132z"/>
	<path fill="#FAEE52" d="M88.622,90.865c-0.163-3.055-0.357-6.725-0.325-9.454H88.2c-0.748,2.567-1.657,5.295-2.761,8.316
		l-3.866,10.623h-2.144l-3.541-10.427c-1.04-3.086-1.917-5.913-2.535-8.512h-0.065c-0.065,2.729-0.227,6.399-0.422,9.681
		l-0.584,9.388h-2.696l1.526-21.894h3.606l3.736,10.589c0.91,2.696,1.656,5.1,2.209,7.374h0.097
		c0.553-2.209,1.332-4.612,2.307-7.374l3.897-10.589h3.606l1.364,21.894h-2.761L88.622,90.865z"/>
</g>
<rect x="149.285" y="231.13" fill="none" width="384.984" height="78.65"/>
<g opacity="0.7" enable-background="new    ">
	<path fill="#231F20" d="M154.579,232.294v9.161h10.589v-9.161h2.858v21.894h-2.858v-10.265h-10.589v10.265h-2.827v-21.894H154.579z
		"/>
	<path fill="#231F20" d="M174.42,246.847c0.065,3.866,2.534,5.458,5.393,5.458c2.046,0,3.281-0.358,4.353-0.813l0.488,2.047
		c-1.007,0.454-2.729,0.973-5.23,0.973c-4.84,0-7.731-3.183-7.731-7.925s2.794-8.479,7.374-8.479c5.133,0,6.497,4.516,6.497,7.406
		c0,0.585-0.064,1.04-0.098,1.333H174.42z M182.802,244.8c0.032-1.82-0.748-4.646-3.963-4.646c-2.891,0-4.158,2.663-4.386,4.646
		H182.802z"/>
	<path fill="#231F20" d="M190.14,238.466l3.442,9.29c0.357,1.04,0.747,2.275,1.007,3.216h0.065c0.292-0.941,0.617-2.144,1.007-3.28
		l3.118-9.226h3.02l-4.287,11.207c-2.046,5.392-3.443,8.154-5.392,9.843c-1.396,1.235-2.794,1.723-3.508,1.851l-0.716-2.403
		c0.716-0.227,1.657-0.682,2.501-1.396c0.78-0.617,1.754-1.721,2.405-3.183c0.13-0.293,0.228-0.521,0.228-0.683
		s-0.065-0.39-0.195-0.748l-5.814-14.488H190.14z"/>
	<path fill="#231F20" d="M210.727,252.53c0-1.169,0.813-2.014,1.917-2.014c1.169,0,1.917,0.845,1.917,2.014
		c0,1.138-0.748,2.016-1.917,2.016C211.508,254.546,210.727,253.668,210.727,252.53z M211.54,247.886l-0.454-15.592h3.118
		l-0.455,15.592H211.54z"/>
	<path fill="#231F20" d="M235.442,232.294v21.894h-2.826v-21.894H235.442z"/>
	<path fill="#231F20" d="M244.242,233.95v4.516h4.093v2.176h-4.093v8.479c0,1.95,0.552,3.054,2.144,3.054
		c0.747,0,1.298-0.097,1.657-0.196l0.13,2.144c-0.552,0.228-1.43,0.39-2.534,0.39c-1.332,0-2.403-0.421-3.086-1.201
		c-0.812-0.845-1.104-2.241-1.104-4.094v-8.576h-2.436v-2.176h2.436v-3.768L244.242,233.95z"/>
	<path fill="#231F20" d="M251.158,251.264c0.844,0.552,2.339,1.138,3.768,1.138c2.079,0,3.054-1.041,3.054-2.341
		c0-1.363-0.812-2.111-2.923-2.89c-2.827-1.007-4.158-2.566-4.158-4.451c0-2.534,2.047-4.613,5.425-4.613
		c1.591,0,2.988,0.455,3.866,0.976l-0.715,2.079c-0.617-0.39-1.754-0.91-3.216-0.91c-1.689,0-2.63,0.975-2.63,2.144
		c0,1.299,0.941,1.883,2.987,2.663c2.729,1.04,4.125,2.405,4.125,4.743c0,2.762-2.143,4.71-5.879,4.71
		c-1.722,0-3.313-0.421-4.418-1.071L251.158,251.264z"/>
	<path fill="#231F20" d="M274.738,233.95v4.516h4.092v2.176h-4.092v8.479c0,1.95,0.55,3.054,2.145,3.054
		c0.746,0,1.298-0.097,1.655-0.196l0.129,2.144c-0.55,0.228-1.428,0.39-2.532,0.39c-1.333,0-2.405-0.421-3.086-1.201
		c-0.813-0.845-1.105-2.241-1.105-4.094v-8.576h-2.435v-2.176h2.435v-3.768L274.738,233.95z"/>
	<path fill="#231F20" d="M285.228,234.047c0.03,0.975-0.684,1.754-1.822,1.754c-1.006,0-1.72-0.779-1.72-1.754
		c0-1.007,0.748-1.787,1.786-1.787C284.544,232.26,285.228,233.04,285.228,234.047z M282.042,254.188v-15.722h2.86v15.722H282.042z"
		/>
	<path fill="#231F20" d="M289.642,242.721c0-1.625-0.032-2.956-0.13-4.255h2.5l0.131,2.534h0.1c0.876-1.496,2.337-2.892,4.936-2.892
		c2.145,0,3.768,1.3,4.451,3.152h0.063c0.486-0.877,1.104-1.56,1.755-2.046c0.943-0.716,1.981-1.105,3.476-1.105
		c2.078,0,5.166,1.365,5.166,6.822v9.258h-2.795v-8.901c0-3.02-1.105-4.838-3.411-4.838c-1.623,0-2.891,1.201-3.377,2.597
		c-0.131,0.39-0.229,0.91-0.229,1.43v9.713h-2.793v-9.419c0-2.502-1.104-4.32-3.282-4.32c-1.785,0-3.084,1.428-3.54,2.858
		c-0.162,0.421-0.227,0.908-0.227,1.396v9.485h-2.794V242.721z"/>
	<path fill="#231F20" d="M318.318,246.847c0.067,3.866,2.536,5.458,5.394,5.458c2.047,0,3.282-0.358,4.353-0.813l0.49,2.047
		c-1.012,0.454-2.731,0.973-5.231,0.973c-4.843,0-7.731-3.183-7.731-7.925s2.794-8.479,7.373-8.479c5.133,0,6.496,4.516,6.496,7.406
		c0,0.585-0.064,1.04-0.096,1.333H318.318z M326.7,244.8c0.031-1.82-0.748-4.646-3.964-4.646c-2.892,0-4.158,2.663-4.385,4.646
		H326.7z"/>
	<path fill="#231F20" d="M343.326,233.95v4.516h4.092v2.176h-4.092v8.479c0,1.95,0.55,3.054,2.146,3.054
		c0.745,0,1.298-0.097,1.654-0.196l0.128,2.144c-0.55,0.228-1.428,0.39-2.531,0.39c-1.334,0-2.405-0.421-3.085-1.201
		c-0.813-0.845-1.107-2.241-1.107-4.094v-8.576h-2.435v-2.176h2.435v-3.768L343.326,233.95z"/>
	<path fill="#231F20" d="M364.664,246.197c0,5.815-4.027,8.349-7.827,8.349c-4.256,0-7.537-3.119-7.537-8.088
		c0-5.264,3.443-8.35,7.796-8.35C361.612,238.108,364.664,241.39,364.664,246.197z M352.191,246.358
		c0,3.444,1.983,6.044,4.774,6.044c2.729,0,4.777-2.568,4.777-6.109c0-2.663-1.332-6.041-4.712-6.041
		C353.653,240.252,352.191,243.372,352.191,246.358z"/>
	<path fill="#231F20" d="M386.359,253.603c-0.748,0.39-2.405,0.91-4.517,0.91c-4.743,0-7.829-3.216-7.829-8.023
		c0-4.84,3.315-8.348,8.446-8.348c1.689,0,3.185,0.421,3.964,0.811l-0.648,2.21c-0.685-0.39-1.757-0.749-3.315-0.749
		c-3.604,0-5.557,2.665-5.557,5.944c0,3.64,2.339,5.881,5.458,5.881c1.625,0,2.697-0.423,3.509-0.779L386.359,253.603z"/>
	<path fill="#231F20" d="M389.7,231.123h2.856v9.812h0.065c0.455-0.813,1.17-1.527,2.045-2.014c0.847-0.489,1.854-0.813,2.925-0.813
		c2.113,0,5.491,1.3,5.491,6.724v9.356h-2.859v-9.03c0-2.535-0.943-4.678-3.639-4.678c-1.852,0-3.313,1.299-3.831,2.858
		c-0.163,0.39-0.197,0.813-0.197,1.365v9.485H389.7V231.123z"/>
	<path fill="#231F20" d="M409.315,246.847c0.065,3.866,2.533,5.458,5.394,5.458c2.044,0,3.279-0.358,4.352-0.813l0.486,2.047
		c-1.005,0.454-2.726,0.973-5.228,0.973c-4.842,0-7.732-3.183-7.732-7.925s2.794-8.479,7.373-8.479c5.134,0,6.498,4.516,6.498,7.406
		c0,0.585-0.064,1.04-0.098,1.333H409.315z M417.696,244.8c0.032-1.82-0.747-4.646-3.96-4.646c-2.894,0-4.159,2.663-4.39,4.646
		H417.696z"/>
	<path fill="#231F20" d="M435.2,253.603c-0.746,0.39-2.405,0.91-4.517,0.91c-4.743,0-7.828-3.216-7.828-8.023
		c0-4.84,3.314-8.348,8.446-8.348c1.688,0,3.184,0.421,3.964,0.811l-0.649,2.21c-0.683-0.39-1.753-0.749-3.314-0.749
		c-3.604,0-5.556,2.665-5.556,5.944c0,3.64,2.339,5.881,5.459,5.881c1.624,0,2.695-0.423,3.508-0.779L435.2,253.603z"/>
	<path fill="#231F20" d="M441.369,245.676h0.063c0.394-0.552,0.943-1.235,1.397-1.787l4.613-5.424h3.445l-6.076,6.464l6.92,9.258
		h-3.477l-5.426-7.537l-1.46,1.624v5.913h-2.828v-23.065h2.828V245.676z"/>
	<path fill="#231F20" d="M461.698,238.466l3.44,9.29c0.36,1.04,0.749,2.275,1.009,3.216h0.064c0.292-0.941,0.619-2.144,1.009-3.28
		l3.117-9.226h3.023l-4.289,11.207c-2.047,5.392-3.443,8.154-5.393,9.843c-1.397,1.235-2.794,1.723-3.509,1.851l-0.716-2.403
		c0.716-0.227,1.657-0.682,2.501-1.396c0.782-0.617,1.755-1.721,2.403-3.183c0.131-0.293,0.229-0.521,0.229-0.683
		s-0.066-0.39-0.194-0.748l-5.813-14.488H461.698z"/>
	<path fill="#231F20" d="M489.857,246.197c0,5.815-4.027,8.349-7.826,8.349c-4.259,0-7.538-3.119-7.538-8.088
		c0-5.264,3.442-8.35,7.796-8.35C486.805,238.108,489.857,241.39,489.857,246.197z M477.384,246.358c0,3.444,1.98,6.044,4.774,6.044
		c2.729,0,4.774-2.568,4.774-6.109c0-2.663-1.33-6.041-4.71-6.041C478.846,240.252,477.384,243.372,477.384,246.358z"/>
	<path fill="#231F20" d="M506.615,249.9c0,1.624,0.031,3.054,0.129,4.288h-2.532l-0.165-2.565h-0.064
		c-0.748,1.266-2.402,2.923-5.196,2.923c-2.471,0-5.427-1.364-5.427-6.887v-9.193h2.859v8.706c0,2.988,0.909,5.003,3.508,5.003
		c1.918,0,3.25-1.332,3.771-2.6c0.16-0.422,0.258-0.942,0.258-1.461v-9.648h2.859V249.9z"/>
	<path fill="#231F20" d="M511.354,243.372c0-1.854-0.033-3.444-0.134-4.906h2.506l0.096,3.086h0.128
		c0.717-2.113,2.438-3.444,4.354-3.444c0.325,0,0.553,0.034,0.813,0.097v2.696c-0.294-0.064-0.585-0.097-0.974-0.097
		c-2.014,0-3.446,1.527-3.834,3.671c-0.066,0.39-0.13,0.845-0.13,1.332v8.381h-2.825V243.372z"/>
</g>
<g opacity="0.7" enable-background="new    ">
	<path fill="#231F20" d="M151.525,293.158c0.065-1.072,0.13-2.664,0.13-4.061v-19.004h2.825v9.877h0.066
		c1.007-1.755,2.826-2.892,5.36-2.892c3.897,0,6.659,3.248,6.627,8.023c0,5.618-3.542,8.414-7.049,8.414
		c-2.274,0-4.093-0.879-5.263-2.957h-0.098l-0.13,2.599H151.525z M154.481,286.856c0,0.357,0.066,0.714,0.13,1.041
		c0.553,1.979,2.209,3.345,4.288,3.345c2.988,0,4.776-2.438,4.776-6.042c0-3.151-1.625-5.847-4.679-5.847
		c-1.948,0-3.768,1.332-4.352,3.508c-0.064,0.325-0.163,0.715-0.163,1.168V286.856z"/>
	<path fill="#231F20" d="M170.134,270.094h2.859v23.064h-2.859V270.094z"/>
	<path fill="#231F20" d="M192.026,285.168c0,5.815-4.028,8.349-7.829,8.349c-4.256,0-7.537-3.119-7.537-8.089
		c0-5.263,3.444-8.349,7.797-8.349C188.972,277.079,192.026,280.36,192.026,285.168z M179.551,285.328
		c0,3.444,1.982,6.045,4.775,6.045c2.729,0,4.775-2.568,4.775-6.109c0-2.662-1.331-6.042-4.71-6.042
		C181.013,279.222,179.551,282.342,179.551,285.328z"/>
	<path fill="#231F20" d="M209.855,285.168c0,5.815-4.028,8.349-7.829,8.349c-4.255,0-7.536-3.119-7.536-8.089
		c0-5.263,3.444-8.349,7.797-8.349C206.801,277.079,209.855,280.36,209.855,285.168z M197.381,285.328
		c0,3.444,1.982,6.045,4.775,6.045c2.729,0,4.775-2.568,4.775-6.109c0-2.662-1.332-6.042-4.71-6.042
		C198.843,279.222,197.381,282.342,197.381,285.328z"/>
	<path fill="#231F20" d="M227.034,270.094v19.004c0,1.396,0.032,2.988,0.131,4.061h-2.567l-0.129-2.729h-0.065
		c-0.877,1.754-2.794,3.087-5.359,3.087c-3.801,0-6.725-3.216-6.725-7.991c-0.033-5.23,3.216-8.446,7.049-8.446
		c2.404,0,4.028,1.136,4.742,2.403h0.065v-9.388H227.034z M224.176,283.836c0-0.359-0.033-0.845-0.129-1.203
		c-0.422-1.818-1.982-3.313-4.125-3.313c-2.957,0-4.711,2.6-4.711,6.075c0,3.185,1.56,5.814,4.646,5.814
		c1.917,0,3.67-1.269,4.191-3.411c0.097-0.39,0.129-0.779,0.129-1.233V283.836z"/>
	<path fill="#231F20" d="M238.657,282.567c0-2.013-0.066-3.638-0.131-5.132h2.567l0.129,2.697h0.066
		c1.168-1.917,3.02-3.053,5.586-3.053c3.801,0,6.66,3.216,6.66,7.99c0,5.651-3.443,8.447-7.147,8.447
		c-2.079,0-3.898-0.909-4.84-2.469h-0.064v8.543h-2.826V282.567z M241.483,286.76c0,0.421,0.064,0.811,0.129,1.169
		c0.52,1.981,2.242,3.348,4.289,3.348c3.021,0,4.775-2.472,4.775-6.076c0-3.151-1.657-5.847-4.678-5.847
		c-1.949,0-3.769,1.397-4.321,3.542c-0.097,0.355-0.194,0.779-0.194,1.168V286.76z"/>
	<path fill="#231F20" d="M257.135,282.342c0-1.853-0.032-3.443-0.13-4.906h2.501l0.098,3.087h0.129
		c0.716-2.113,2.437-3.444,4.353-3.444c0.326,0,0.552,0.032,0.813,0.097v2.695c-0.292-0.063-0.585-0.096-0.975-0.096
		c-2.014,0-3.444,1.527-3.834,3.671c-0.064,0.39-0.129,0.844-0.129,1.333v8.38h-2.826V282.342z"/>
	<path fill="#231F20" d="M269.021,285.817c0.068,3.866,2.536,5.459,5.393,5.459c2.048,0,3.282-0.359,4.354-0.813l0.488,2.048
		c-1.009,0.452-2.729,0.973-5.23,0.973c-4.842,0-7.732-3.183-7.732-7.926c0-4.743,2.795-8.479,7.374-8.479
		c5.133,0,6.496,4.515,6.496,7.405c0,0.585-0.065,1.041-0.097,1.333H269.021z M277.405,283.771c0.031-1.819-0.748-4.645-3.964-4.645
		c-2.893,0-4.158,2.663-4.386,4.645H277.405z"/>
	<path fill="#231F20" d="M283.31,290.234c0.845,0.553,2.339,1.139,3.77,1.139c2.078,0,3.054-1.042,3.054-2.341
		c0-1.363-0.813-2.111-2.924-2.891c-2.826-1.005-4.159-2.566-4.159-4.449c0-2.535,2.045-4.613,5.424-4.613
		c1.592,0,2.989,0.455,3.865,0.974l-0.715,2.079c-0.616-0.39-1.755-0.91-3.214-0.91c-1.689,0-2.631,0.975-2.631,2.145
		c0,1.3,0.941,1.884,2.987,2.663c2.73,1.04,4.126,2.405,4.126,4.743c0,2.762-2.146,4.711-5.88,4.711
		c-1.723,0-3.314-0.423-4.419-1.072L283.31,290.234z"/>
	<path fill="#231F20" d="M296.171,290.234c0.844,0.553,2.337,1.139,3.767,1.139c2.08,0,3.055-1.042,3.055-2.341
		c0-1.363-0.813-2.111-2.924-2.891c-2.826-1.005-4.158-2.566-4.158-4.449c0-2.535,2.047-4.613,5.427-4.613
		c1.59,0,2.986,0.455,3.865,0.974l-0.717,2.079c-0.616-0.39-1.751-0.91-3.216-0.91c-1.689,0-2.631,0.975-2.631,2.145
		c0,1.3,0.941,1.884,2.989,2.663c2.728,1.04,4.124,2.405,4.124,4.743c0,2.762-2.143,4.711-5.88,4.711
		c-1.72,0-3.311-0.423-4.416-1.072L296.171,290.234z"/>
	<path fill="#231F20" d="M322.577,288.87c0,1.624,0.033,3.054,0.13,4.288h-2.534l-0.162-2.564h-0.065
		c-0.746,1.266-2.404,2.923-5.196,2.923c-2.47,0-5.426-1.365-5.426-6.888v-9.193h2.858v8.706c0,2.989,0.91,5.003,3.51,5.003
		c1.914,0,3.247-1.33,3.766-2.599c0.164-0.422,0.261-0.942,0.261-1.462v-9.648h2.859V288.87z"/>
	<path fill="#231F20" d="M327.315,282.342c0-1.853-0.032-3.443-0.132-4.906h2.503l0.099,3.087h0.129
		c0.717-2.113,2.438-3.444,4.353-3.444c0.326,0,0.553,0.032,0.813,0.097v2.695c-0.291-0.063-0.583-0.096-0.977-0.096
		c-2.012,0-3.44,1.527-3.834,3.671c-0.063,0.39-0.128,0.844-0.128,1.333v8.38h-2.826V282.342z"/>
	<path fill="#231F20" d="M339.201,285.817c0.064,3.866,2.534,5.459,5.392,5.459c2.048,0,3.284-0.359,4.354-0.813l0.487,2.048
		c-1.009,0.452-2.73,0.973-5.23,0.973c-4.84,0-7.729-3.183-7.729-7.926c0-4.743,2.791-8.479,7.372-8.479
		c5.132,0,6.497,4.515,6.497,7.405c0,0.585-0.063,1.041-0.098,1.333H339.201z M347.582,283.771c0.031-1.819-0.749-4.645-3.963-4.645
		c-2.892,0-4.158,2.663-4.385,4.645H347.582z"/>
</g>
<rect x="40.943" y="234.127" fill="none" width="75.839" height="75.651"/>
<g enable-background="new    ">
	<path fill="#5EBB47" d="M48.609,238.734h-0.065l-3.67,1.981l-0.552-2.176l4.613-2.469h2.437v21.115h-2.761V238.734z"/>
	<path fill="#5EBB47" d="M73.096,246.401c0,7.179-2.664,11.143-7.341,11.143c-4.125,0-6.919-3.867-6.984-10.85
		c0-7.082,3.055-10.98,7.341-10.98C70.563,235.713,73.096,239.677,73.096,246.401z M61.63,246.726c0,5.489,1.689,8.608,4.287,8.608
		c2.924,0,4.321-3.41,4.321-8.802c0-5.198-1.332-8.609-4.288-8.609C63.449,237.923,61.63,240.976,61.63,246.726z"/>
	<path fill="#5EBB47" d="M75.95,244.063c0-1.203,0.813-2.048,1.949-2.048c1.137,0,1.884,0.845,1.917,2.048
		c0,1.135-0.746,2.014-1.948,2.014C76.73,246.077,75.95,245.198,75.95,244.063z M75.95,255.528c0-1.201,0.813-2.045,1.949-2.045
		c1.137,0,1.884,0.844,1.917,2.045c0,1.138-0.746,2.015-1.948,2.015C76.73,257.543,75.95,256.666,75.95,255.528z"/>
	<path fill="#5EBB47" d="M96.478,246.401c0,7.179-2.663,11.143-7.34,11.143c-4.125,0-6.919-3.867-6.985-10.85
		c0-7.082,3.054-10.98,7.342-10.98C93.946,235.713,96.478,239.677,96.478,246.401z M85.012,246.726c0,5.489,1.689,8.608,4.288,8.608
		c2.924,0,4.32-3.41,4.32-8.802c0-5.198-1.332-8.609-4.288-8.609C86.831,237.923,85.012,240.976,85.012,246.726z"/>
	<path fill="#5EBB47" d="M113.138,246.401c0,7.179-2.664,11.143-7.34,11.143c-4.125,0-6.92-3.867-6.985-10.85
		c0-7.082,3.055-10.98,7.342-10.98C110.605,235.713,113.138,239.677,113.138,246.401z M101.672,246.726
		c0,5.489,1.688,8.608,4.287,8.608c2.924,0,4.32-3.41,4.32-8.802c0-5.198-1.332-8.609-4.287-8.609
		C103.49,237.923,101.672,240.976,101.672,246.726z"/>
</g>
<g enable-background="new    ">
	<path fill="#5EBB47" d="M43.411,274.522c1.364-0.228,3.151-0.422,5.425-0.422c2.794,0,4.841,0.649,6.139,1.818
		c1.203,1.041,1.917,2.631,1.917,4.581c0,1.981-0.584,3.541-1.689,4.677c-1.494,1.593-3.931,2.405-6.692,2.405
		c-0.844,0-1.624-0.033-2.273-0.196v8.771h-2.827V274.522z M46.238,285.078c0.617,0.163,1.397,0.229,2.338,0.229
		c3.412,0,5.49-1.656,5.49-4.678c0-2.89-2.046-4.287-5.165-4.287c-1.233,0-2.177,0.097-2.663,0.228V285.078z"/>
	<path fill="#5EBB47" d="M86.024,286.541c-0.163-3.055-0.357-6.725-0.324-9.454h-0.098c-0.747,2.568-1.657,5.296-2.761,8.316
		l-3.866,10.622h-2.144l-3.54-10.426c-1.04-3.087-1.917-5.914-2.534-8.513h-0.066c-0.065,2.729-0.227,6.399-0.422,9.682
		l-0.584,9.387h-2.696l1.527-21.893h3.605l3.736,10.589c0.909,2.696,1.656,5.1,2.209,7.374h0.097
		c0.552-2.21,1.332-4.612,2.307-7.374l3.897-10.589h3.606l1.364,21.893h-2.76L86.024,286.541z"/>
</g>
<path fill="none" stroke="#42C5E6" stroke-width="3.5681" stroke-miterlimit="10" d="M18.135,393.96H545.87
	c6.404,0,11.599,5.191,11.599,11.599v96.285c0,6.404-5.194,11.597-11.599,11.597h-43.848l-10.666,21.827l-12.47-21.827H18.135
	c-6.406,0-11.6-5.192-11.6-11.597v-96.285C6.536,399.151,11.73,393.96,18.135,393.96z"/>
<path fill="none" stroke="#FEDA04" stroke-width="3.5681" stroke-miterlimit="10" d="M18.135,10.674H545.87
	c6.404,0,11.599,5.192,11.599,11.599v96.284c0,6.405-5.194,11.599-11.599,11.599h-43.848l-10.666,21.827l-12.47-21.827H18.135
	c-6.406,0-11.6-5.194-11.6-11.599V22.273C6.536,15.866,11.73,10.674,18.135,10.674z"/>
<rect x="149.285" y="417.009" fill="none" width="384.984" height="88.903"/>
<g opacity="0.7" enable-background="new    ">
	<path fill="#231F20" d="M154.579,418.171v9.16h10.589v-9.16h2.858v21.895h-2.858v-10.264h-10.589v10.264h-2.827v-21.895H154.579z"
		/>
	<path fill="#231F20" d="M174.42,432.724c0.065,3.866,2.534,5.459,5.393,5.459c2.046,0,3.281-0.359,4.353-0.813l0.488,2.047
		c-1.007,0.454-2.729,0.975-5.23,0.975c-4.84,0-7.731-3.184-7.731-7.927s2.794-8.479,7.374-8.479c5.133,0,6.497,4.516,6.497,7.407
		c0,0.585-0.064,1.04-0.098,1.332H174.42z M182.802,430.677c0.032-1.818-0.748-4.645-3.963-4.645c-2.891,0-4.158,2.662-4.386,4.645
		H182.802z"/>
	<path fill="#231F20" d="M190.14,424.343l3.442,9.29c0.357,1.04,0.747,2.274,1.007,3.217h0.065c0.292-0.942,0.617-2.145,1.007-3.28
		l3.118-9.227h3.02l-4.287,11.206c-2.046,5.393-3.443,8.154-5.392,9.844c-1.396,1.234-2.794,1.724-3.508,1.851l-0.716-2.404
		c0.716-0.226,1.657-0.681,2.501-1.395c0.78-0.618,1.754-1.722,2.405-3.184c0.13-0.293,0.228-0.521,0.228-0.683
		s-0.065-0.39-0.195-0.746l-5.814-14.489H190.14z"/>
	<path fill="#231F20" d="M210.727,438.408c0-1.169,0.813-2.015,1.917-2.015c1.169,0,1.917,0.846,1.917,2.015
		c0,1.137-0.748,2.016-1.917,2.016C211.508,440.424,210.727,439.545,210.727,438.408z M211.54,433.764l-0.454-15.593h3.118
		l-0.455,15.593H211.54z"/>
	<path fill="#231F20" d="M235.442,418.171v21.895h-2.826v-21.895H235.442z"/>
	<path fill="#231F20" d="M244.242,419.828v4.515h4.093v2.176h-4.093v8.479c0,1.948,0.552,3.054,2.144,3.054
		c0.747,0,1.298-0.098,1.657-0.196l0.13,2.146c-0.552,0.226-1.43,0.39-2.534,0.39c-1.332,0-2.403-0.423-3.086-1.202
		c-0.812-0.845-1.104-2.242-1.104-4.094v-8.576h-2.436v-2.176h2.436v-3.768L244.242,419.828z"/>
	<path fill="#231F20" d="M251.158,437.141c0.844,0.554,2.339,1.139,3.768,1.139c2.079,0,3.054-1.04,3.054-2.341
		c0-1.362-0.812-2.111-2.923-2.891c-2.827-1.006-4.158-2.564-4.158-4.449c0-2.534,2.047-4.614,5.425-4.614
		c1.591,0,2.988,0.456,3.866,0.976l-0.715,2.081c-0.617-0.392-1.754-0.912-3.216-0.912c-1.689,0-2.63,0.976-2.63,2.145
		c0,1.299,0.941,1.884,2.987,2.663c2.729,1.04,4.125,2.405,4.125,4.743c0,2.763-2.143,4.711-5.879,4.711
		c-1.722,0-3.313-0.423-4.418-1.073L251.158,437.141z"/>
	<path fill="#231F20" d="M274.738,419.828v4.515h4.092v2.176h-4.092v8.479c0,1.948,0.55,3.054,2.145,3.054
		c0.746,0,1.298-0.098,1.655-0.196l0.129,2.146c-0.55,0.226-1.428,0.39-2.532,0.39c-1.333,0-2.405-0.423-3.086-1.202
		c-0.813-0.845-1.105-2.242-1.105-4.094v-8.576h-2.435v-2.176h2.435v-3.768L274.738,419.828z"/>
	<path fill="#231F20" d="M285.228,419.925c0.03,0.975-0.684,1.754-1.822,1.754c-1.006,0-1.72-0.779-1.72-1.754
		c0-1.009,0.748-1.788,1.786-1.788C284.544,418.137,285.228,418.916,285.228,419.925z M282.042,440.065v-15.723h2.86v15.723H282.042
		z"/>
	<path fill="#231F20" d="M289.642,428.599c0-1.625-0.032-2.956-0.13-4.256h2.5l0.131,2.534h0.1c0.876-1.495,2.337-2.893,4.936-2.893
		c2.145,0,3.768,1.301,4.451,3.151h0.063c0.486-0.876,1.104-1.559,1.755-2.045c0.943-0.717,1.981-1.106,3.476-1.106
		c2.078,0,5.166,1.365,5.166,6.822v9.259h-2.795v-8.901c0-3.021-1.105-4.839-3.411-4.839c-1.623,0-2.891,1.2-3.377,2.598
		c-0.131,0.39-0.229,0.909-0.229,1.429v9.714h-2.793v-9.421c0-2.501-1.104-4.319-3.282-4.319c-1.785,0-3.084,1.429-3.54,2.857
		c-0.162,0.422-0.227,0.909-0.227,1.398v9.484h-2.794V428.599z"/>
	<path fill="#231F20" d="M318.318,432.724c0.067,3.866,2.536,5.459,5.394,5.459c2.047,0,3.282-0.359,4.353-0.813l0.49,2.047
		c-1.012,0.454-2.731,0.975-5.231,0.975c-4.843,0-7.731-3.184-7.731-7.927s2.794-8.479,7.373-8.479c5.133,0,6.496,4.516,6.496,7.407
		c0,0.585-0.064,1.04-0.096,1.332H318.318z M326.7,430.677c0.031-1.818-0.748-4.645-3.964-4.645c-2.892,0-4.158,2.662-4.385,4.645
		H326.7z"/>
	<path fill="#231F20" d="M343.326,419.828v4.515h4.092v2.176h-4.092v8.479c0,1.948,0.55,3.054,2.146,3.054
		c0.745,0,1.298-0.098,1.654-0.196l0.128,2.146c-0.55,0.226-1.428,0.39-2.531,0.39c-1.334,0-2.405-0.423-3.085-1.202
		c-0.813-0.845-1.107-2.242-1.107-4.094v-8.576h-2.435v-2.176h2.435v-3.768L343.326,419.828z"/>
	<path fill="#231F20" d="M364.664,432.074c0,5.815-4.027,8.35-7.827,8.35c-4.256,0-7.537-3.119-7.537-8.09
		c0-5.263,3.443-8.35,7.796-8.35C361.612,423.984,364.664,427.267,364.664,432.074z M352.191,432.234
		c0,3.445,1.983,6.045,4.774,6.045c2.729,0,4.777-2.567,4.777-6.108c0-2.663-1.332-6.042-4.712-6.042
		C353.653,426.129,352.191,429.249,352.191,432.234z"/>
	<path fill="#231F20" d="M378.595,419.828v4.515h4.092v2.176h-4.092v8.479c0,1.948,0.551,3.054,2.143,3.054
		c0.748,0,1.298-0.098,1.656-0.196l0.131,2.146c-0.553,0.226-1.43,0.39-2.535,0.39c-1.329,0-2.403-0.423-3.087-1.202
		c-0.81-0.845-1.102-2.242-1.102-4.094v-8.576h-2.438v-2.176h2.438v-3.768L378.595,419.828z"/>
	<path fill="#231F20" d="M394.605,440.065l-0.227-1.981h-0.097c-0.88,1.233-2.569,2.34-4.811,2.34c-3.183,0-4.806-2.241-4.806-4.517
		c0-3.8,3.377-5.88,9.453-5.847v-0.325c0-1.3-0.357-3.638-3.574-3.638c-1.462,0-2.989,0.454-4.094,1.169l-0.649-1.885
		c1.299-0.846,3.185-1.397,5.164-1.397c4.81,0,5.979,3.282,5.979,6.433v5.88c0,1.365,0.064,2.695,0.26,3.769H394.605z
		 M394.183,432.042c-3.12-0.065-6.659,0.486-6.659,3.541c0,1.851,1.233,2.728,2.695,2.728c2.048,0,3.347-1.3,3.8-2.631
		c0.1-0.292,0.164-0.617,0.164-0.91V432.042z"/>
	<path fill="#231F20" d="M404.376,431.554h0.067c0.389-0.552,0.943-1.235,1.397-1.786l4.612-5.425h3.443l-6.075,6.464l6.919,9.259
		h-3.477l-5.423-7.537l-1.465,1.624v5.913h-2.823V417h2.823V431.554z"/>
	<path fill="#231F20" d="M418.374,432.724c0.065,3.866,2.536,5.459,5.393,5.459c2.046,0,3.281-0.359,4.353-0.813l0.489,2.047
		c-1.009,0.454-2.729,0.975-5.23,0.975c-4.842,0-7.732-3.184-7.732-7.927s2.794-8.479,7.374-8.479c5.133,0,6.496,4.516,6.496,7.407
		c0,0.585-0.063,1.04-0.095,1.332H418.374z M426.756,430.677c0.031-1.818-0.748-4.645-3.962-4.645c-2.894,0-4.158,2.662-4.389,4.645
		H426.756z"/>
	<path fill="#231F20" d="M440.979,424.343l3.44,9.29c0.358,1.04,0.747,2.274,1.012,3.217h0.063c0.292-0.942,0.617-2.145,1.007-3.28
		l3.118-9.227h3.022l-4.29,11.206c-2.044,5.393-3.442,8.154-5.392,9.844c-1.396,1.234-2.792,1.724-3.508,1.851l-0.716-2.404
		c0.716-0.226,1.657-0.681,2.501-1.395c0.781-0.618,1.755-1.722,2.403-3.184c0.131-0.293,0.229-0.521,0.229-0.683
		s-0.064-0.39-0.195-0.746l-5.813-14.489H440.979z"/>
	<path fill="#231F20" d="M469.137,432.074c0,5.815-4.026,8.35-7.827,8.35c-4.258,0-7.536-3.119-7.536-8.09
		c0-5.263,3.442-8.35,7.795-8.35C466.084,423.984,469.137,427.267,469.137,432.074z M456.663,432.234
		c0,3.445,1.98,6.045,4.774,6.045c2.729,0,4.774-2.567,4.774-6.108c0-2.663-1.329-6.042-4.709-6.042
		C458.125,426.129,456.663,429.249,456.663,432.234z"/>
	<path fill="#231F20" d="M485.895,435.777c0,1.623,0.031,3.055,0.131,4.288h-2.534l-0.163-2.565h-0.065
		c-0.747,1.265-2.402,2.924-5.196,2.924c-2.472,0-5.427-1.366-5.427-6.888v-9.193h2.86v8.705c0,2.99,0.908,5.004,3.507,5.004
		c1.918,0,3.249-1.331,3.771-2.6c0.162-0.423,0.258-0.941,0.258-1.462v-9.647h2.859V435.777z"/>
	<path fill="#231F20" d="M490.633,429.249c0-1.853-0.034-3.444-0.13-4.906h2.502l0.097,3.087h0.129
		c0.715-2.114,2.436-3.445,4.354-3.445c0.325,0,0.552,0.034,0.813,0.097v2.696c-0.293-0.063-0.587-0.096-0.976-0.096
		c-2.015,0-3.444,1.527-3.833,3.67c-0.064,0.391-0.131,0.845-0.131,1.332v8.382h-2.825V429.249z"/>
</g>
<g opacity="0.7" enable-background="new    ">
	<path fill="#231F20" d="M151.656,467.568c0-1.625-0.033-2.956-0.13-4.254h2.501l0.13,2.532h0.097
		c0.878-1.495,2.339-2.891,4.938-2.891c2.145,0,3.769,1.299,4.451,3.151h0.065c0.487-0.876,1.104-1.559,1.754-2.047
		c0.942-0.715,1.981-1.104,3.476-1.104c2.078,0,5.166,1.363,5.166,6.82v9.26h-2.794v-8.901c0-3.021-1.105-4.839-3.412-4.839
		c-1.624,0-2.891,1.201-3.378,2.597c-0.13,0.39-0.227,0.911-0.227,1.431v9.713h-2.794v-9.42c0-2.503-1.104-4.32-3.28-4.32
		c-1.787,0-3.086,1.428-3.542,2.857c-0.162,0.422-0.227,0.909-0.227,1.397v9.485h-2.793V467.568z"/>
	<path fill="#231F20" d="M180.331,471.694c0.065,3.866,2.534,5.459,5.393,5.459c2.046,0,3.281-0.358,4.353-0.813l0.488,2.047
		c-1.007,0.453-2.729,0.974-5.23,0.974c-4.84,0-7.731-3.184-7.731-7.927c0-4.741,2.794-8.478,7.374-8.478
		c5.133,0,6.497,4.515,6.497,7.405c0,0.586-0.065,1.041-0.097,1.333H180.331z M188.713,469.647c0.031-1.819-0.748-4.646-3.963-4.646
		c-2.891,0-4.158,2.663-4.386,4.646H188.713z"/>
	<path fill="#231F20" d="M208.589,455.971v19.003c0,1.398,0.033,2.99,0.13,4.063h-2.567l-0.129-2.728h-0.065
		c-0.877,1.751-2.794,3.085-5.36,3.085c-3.801,0-6.725-3.217-6.725-7.991c-0.033-5.23,3.216-8.446,7.049-8.446
		c2.405,0,4.028,1.138,4.743,2.402h0.065v-9.388H208.589z M205.73,469.713c0-0.358-0.033-0.845-0.129-1.202
		c-0.423-1.818-1.983-3.313-4.126-3.313c-2.956,0-4.71,2.598-4.71,6.075c0,3.184,1.56,5.814,4.646,5.814
		c1.917,0,3.67-1.267,4.19-3.412c0.097-0.39,0.129-0.779,0.129-1.233V469.713z"/>
	<path fill="#231F20" d="M216.51,458.895c0.033,0.977-0.682,1.755-1.82,1.755c-1.006,0-1.722-0.778-1.722-1.755
		c0-1.006,0.748-1.787,1.787-1.787C215.828,457.107,216.51,457.889,216.51,458.895z M213.327,479.036v-15.722h2.858v15.722H213.327z
		"/>
	<path fill="#231F20" d="M232.134,478.45c-0.748,0.39-2.405,0.91-4.517,0.91c-4.742,0-7.828-3.217-7.828-8.023
		c0-4.84,3.313-8.347,8.446-8.347c1.688,0,3.183,0.421,3.963,0.811l-0.649,2.21c-0.683-0.39-1.755-0.749-3.314-0.749
		c-3.605,0-5.555,2.665-5.555,5.944c0,3.64,2.339,5.881,5.458,5.881c1.624,0,2.695-0.422,3.508-0.778L232.134,478.45z"/>
	<path fill="#231F20" d="M238.657,458.895c0.033,0.977-0.682,1.755-1.819,1.755c-1.007,0-1.722-0.778-1.722-1.755
		c0-1.006,0.747-1.787,1.787-1.787C237.976,457.107,238.657,457.889,238.657,458.895z M235.475,479.036v-15.722h2.858v15.722
		H235.475z"/>
	<path fill="#231F20" d="M243.074,467.568c0-1.625-0.033-2.956-0.13-4.254h2.534l0.163,2.598h0.065
		c0.779-1.494,2.598-2.956,5.198-2.956c2.175,0,5.554,1.299,5.554,6.691v9.389h-2.859v-9.064c0-2.533-0.942-4.644-3.638-4.644
		c-1.884,0-3.345,1.33-3.833,2.923c-0.129,0.357-0.195,0.846-0.195,1.332v9.453h-2.858V467.568z"/>
	<path fill="#231F20" d="M262.69,471.694c0.065,3.866,2.534,5.459,5.393,5.459c2.046,0,3.28-0.358,4.353-0.813l0.486,2.047
		c-1.005,0.453-2.728,0.974-5.229,0.974c-4.841,0-7.732-3.184-7.732-7.927c0-4.741,2.794-8.478,7.375-8.478
		c5.131,0,6.496,4.515,6.496,7.405c0,0.586-0.063,1.041-0.097,1.333H262.69z M271.07,469.647c0.032-1.819-0.748-4.646-3.962-4.646
		c-2.891,0-4.159,2.663-4.386,4.646H271.07z"/>
</g>
<rect x="40.943" y="420.005" fill="none" width="75.839" height="75.652"/>
<g opacity="0.5" enable-background="new    ">
	<path fill="#3260AC" d="M48.609,424.611h-0.065l-3.67,1.981l-0.552-2.176l4.613-2.469h2.437v21.114h-2.761V424.611z"/>
	<path fill="#3260AC" d="M65.268,424.611h-0.065l-3.671,1.981l-0.552-2.176l4.613-2.469h2.436v21.114h-2.761V424.611z"/>
	<path fill="#3260AC" d="M75.95,429.94c0-1.203,0.813-2.048,1.949-2.048c1.137,0,1.884,0.845,1.917,2.048
		c0,1.135-0.746,2.014-1.948,2.014C76.73,431.954,75.95,431.075,75.95,429.94z M75.95,441.405c0-1.2,0.813-2.045,1.949-2.045
		c1.137,0,1.884,0.845,1.917,2.045c0,1.137-0.746,2.016-1.948,2.016C76.73,443.421,75.95,442.542,75.95,441.405z"/>
	<path fill="#3260AC" d="M96.478,432.277c0,7.18-2.663,11.144-7.34,11.144c-4.125,0-6.919-3.866-6.985-10.851
		c0-7.081,3.054-10.98,7.342-10.98C93.946,421.59,96.478,425.554,96.478,432.277z M85.012,432.603c0,5.49,1.689,8.608,4.288,8.608
		c2.924,0,4.32-3.409,4.32-8.803c0-5.198-1.332-8.608-4.288-8.608C86.831,423.8,85.012,426.853,85.012,432.603z"/>
	<path fill="#3260AC" d="M113.138,432.277c0,7.18-2.664,11.144-7.34,11.144c-4.125,0-6.92-3.866-6.985-10.851
		c0-7.081,3.055-10.98,7.342-10.98C110.605,421.59,113.138,425.554,113.138,432.277z M101.672,432.603
		c0,5.49,1.688,8.608,4.287,8.608c2.924,0,4.32-3.409,4.32-8.803c0-5.198-1.332-8.608-4.287-8.608
		C103.49,423.8,101.672,426.853,101.672,432.603z"/>
</g>
<g opacity="0.5" enable-background="new    ">
	<path fill="#3260AC" d="M43.411,460.398c1.364-0.227,3.151-0.422,5.425-0.422c2.794,0,4.841,0.648,6.139,1.818
		c1.203,1.041,1.917,2.631,1.917,4.581c0,1.981-0.584,3.542-1.689,4.678c-1.494,1.592-3.931,2.405-6.692,2.405
		c-0.844,0-1.624-0.034-2.273-0.195v8.771h-2.827V460.398z M46.238,470.957c0.617,0.162,1.397,0.227,2.338,0.227
		c3.412,0,5.49-1.655,5.49-4.679c0-2.89-2.046-4.287-5.165-4.287c-1.233,0-2.177,0.098-2.663,0.229V470.957z"/>
	<path fill="#3260AC" d="M86.024,472.417c-0.163-3.054-0.357-6.723-0.324-9.452h-0.098c-0.747,2.567-1.657,5.295-2.761,8.314
		l-3.866,10.623h-2.144l-3.54-10.426c-1.04-3.086-1.917-5.913-2.534-8.512h-0.066c-0.065,2.729-0.227,6.398-0.422,9.681
		l-0.584,9.389h-2.696l1.527-21.895h3.605l3.736,10.59c0.909,2.695,1.656,5.099,2.209,7.373h0.097
		c0.552-2.209,1.332-4.612,2.307-7.373l3.897-10.59h3.606l1.364,21.895h-2.76L86.024,472.417z"/>
</g>
</svg>
