<?xml version="1.0" encoding="utf-8"?>
<!-- Generator: Adobe Illustrator 16.0.0, SVG Export Plug-In . SVG Version: 6.00 Build 0)  -->
<!DOCTYPE svg PUBLIC "-//W3C//DTD SVG 1.1//EN" "http://www.w3.org/Graphics/SVG/1.1/DTD/svg11.dtd">
<svg version="1.1" id="Layer_1" xmlns="http://www.w3.org/2000/svg" xmlns:xlink="http://www.w3.org/1999/xlink" x="0px" y="0px"
	 width="566.93px" height="566.93px" viewBox="0 0 566.93 566.93" enable-background="new 0 0 566.93 566.93" xml:space="preserve">
<g>
	<path fill="#FFFFFF" stroke="#95CC7D" stroke-miterlimit="10" d="M129.568,348.281c0,0.662-0.541,1.203-1.204,1.203h-24.161
		c-0.663,0-1.204-0.541-1.204-1.203v-17.495c0-0.663,0.541-1.203,1.204-1.203h24.161c0.663,0,1.204,0.54,1.204,1.203V348.281
		L129.568,348.281z"/>
	<path fill="none" stroke="#95CC7D" stroke-width="4" stroke-linecap="round" stroke-linejoin="round" stroke-miterlimit="10" d="
		M129.568,348.281c0,0.662-0.541,1.203-1.204,1.203h-24.161c-0.663,0-1.204-0.541-1.204-1.203v-17.495
		c0-0.663,0.541-1.203,1.204-1.203h24.161c0.663,0,1.204,0.54,1.204,1.203V348.281L129.568,348.281z"/>
</g>
<g>
	<path fill="#FFFFFF" stroke="#95CC7D" stroke-miterlimit="10" d="M129.568,406.05c0,0.663-0.541,1.204-1.204,1.204h-24.077
		c-0.663,0-1.204-0.541-1.204-1.204v-32.836c0-0.663,0.54-1.204,1.204-1.204h24.077c0.663,0,1.204,0.541,1.204,1.204V406.05z"/>
	<path fill="none" stroke="#95CC7D" stroke-width="4" stroke-linecap="round" stroke-linejoin="round" stroke-miterlimit="10" d="
		M129.568,406.05c0,0.663-0.541,1.204-1.204,1.204h-24.077c-0.663,0-1.204-0.541-1.204-1.204v-32.836
		c0-0.663,0.54-1.204,1.204-1.204h24.077c0.663,0,1.204,0.541,1.204,1.204V406.05z"/>
</g>
<g>
	<path fill="#FFFFFF" stroke="#95CC7D" stroke-miterlimit="10" d="M331.252,405.449c0,0.993-0.813,1.805-1.808,1.805h-22.863
		c-0.993,0-1.807-0.812-1.807-1.805v-31.626c0-0.993,0.813-1.806,1.807-1.806h22.863c0.994,0,1.808,0.813,1.808,1.806V405.449z"/>
	<path fill="none" stroke="#95CC7D" stroke-width="4" stroke-linecap="round" stroke-linejoin="round" stroke-miterlimit="10" d="
		M331.252,405.449c0,0.993-0.813,1.805-1.808,1.805h-22.863c-0.993,0-1.807-0.812-1.807-1.805v-31.626
		c0-0.993,0.813-1.806,1.807-1.806h22.863c0.994,0,1.808,0.813,1.808,1.806V405.449z"/>
</g>
<g>
	<path fill="#FFFFFF" stroke="#95CC7D" stroke-miterlimit="10" d="M129.657,449.55c0,0.663-0.541,1.203-1.204,1.203h-24.078
		c-0.663,0-1.204-0.54-1.204-1.203v-32.838c0-0.662,0.54-1.204,1.204-1.204h24.078c0.663,0,1.204,0.542,1.204,1.204V449.55z"/>
	<path fill="none" stroke="#95CC7D" stroke-width="4" stroke-linecap="round" stroke-linejoin="round" stroke-miterlimit="10" d="
		M129.657,449.55c0,0.663-0.541,1.203-1.204,1.203h-24.078c-0.663,0-1.204-0.54-1.204-1.203v-32.838c0-0.662,0.54-1.204,1.204-1.204
		h24.078c0.663,0,1.204,0.542,1.204,1.204V449.55z"/>
</g>
<path fill="#FFFFFF" stroke="#95CC7D" stroke-width="4.1372" stroke-miterlimit="10" d="M327.715,566.93V308.545
	c0-17.238-13.974-31.215-31.213-31.215H137.475c-17.238,0-31.213,13.977-31.213,31.215V566.93"/>
<circle fill="#F1F1F1" stroke="#8995C7" stroke-width="0.9026" stroke-miterlimit="10" cx="179.394" cy="302.45" r="3.979"/>
<path fill="#E4E4E4" stroke="#8995C7" stroke-width="1.0343" stroke-miterlimit="10" d="M233.843,302.316
	c0,0.863-0.701,1.563-1.566,1.563h-33.069c-0.864,0-1.565-0.7-1.565-1.563v-1.01c0-0.863,0.701-1.564,1.565-1.564h33.069
	c0.865,0,1.566,0.701,1.566,1.564V302.316z"/>
<polygon fill="#AEAA71" points="171.877,185.11 168.926,179.454 168.926,164.863 159.237,164.863 159.237,179.454 156.284,185.11 
	156.284,219.917 159.983,219.917 159.983,238.347 168.151,238.347 168.151,219.917 171.877,219.917 "/>
<rect x="159.997" y="241.304" fill="#AEAA71" width="8.168" height="7.63"/>
<polygon fill="#AEAA71" points="159.997,254.666 161.429,254.881 159.992,262.692 162.065,265.45 166.054,265.583 168.161,262.692 
	166.735,254.81 168.166,254.596 168.169,251.943 160.002,251.943 "/>
<path opacity="0.5" fill="#FFFFFF" stroke="#0D94D2" stroke-width="6.2058" stroke-miterlimit="10" enable-background="new    " d="
	M164.081,164.863c0,0,0-0.821,0-72.188c0-71.367,32.063-81.683,81.683-81.683s70,22.117,70,70c0,47.883,5.477,83.049,83.05,83.049
	h65.117"/>
<path id="XMLID_2_" opacity="0.6" fill="#F36C21" enable-background="new    " d="M257.371,452.09l-40.413,40.401l-0.058-0.074l0,0
	l-40.339-40.387c-9.849-9.857-9.849-25.802,0-35.65c9.849-9.853,25.79-9.787,35.63,0l4.893,4.892l4.829-4.822
	c9.848-9.855,25.801-9.855,35.643,0C267.282,426.289,267.213,442.236,257.371,452.09z"/>
<path fill="#FFFFFF" stroke="#8995C7" stroke-width="4.1372" stroke-miterlimit="10" d="M207.632,568.299"/>
</svg>
