<?xml version="1.0" encoding="utf-8"?>
<!-- Generator: Adobe Illustrator 16.0.0, SVG Export Plug-In . SVG Version: 6.00 Build 0)  -->
<!DOCTYPE svg PUBLIC "-//W3C//DTD SVG 1.1//EN" "http://www.w3.org/Graphics/SVG/1.1/DTD/svg11.dtd">
<svg version="1.1" id="Layer_1" xmlns="http://www.w3.org/2000/svg" xmlns:xlink="http://www.w3.org/1999/xlink" x="0px" y="0px"
	 width="566.93px" height="566.93px" viewBox="0 0 566.93 566.93" enable-background="new 0 0 566.93 566.93" xml:space="preserve">
<path opacity="0.8" fill="#C1B49A" stroke="#6D6E70" stroke-width="4.045" stroke-miterlimit="10" enable-background="new    " d="
	M415.622,106.769c-12.733-0.764-30.144-10.924-44.003-27.372c-0.748-0.888-1.755-0.887-2.497-0.441l-24.327,14.068
	c-6.596,3.816-14.806,1.958-18.333-4.14c-3.528-6.101-1.039-14.133,5.563-17.951l48.946-28.308
	c3.158-1.762,21.68-14.722,43.732-7.506c22.052,7.22,15.971,6.092,15.971,6.092l45.954-26.402l44.22,75.691l-30.101,19.936
	c0,0-0.5,20.523-4.203,29.282l-0.288,0.688c-1.195,2.57-3.212,4.849-5.93,6.419l-148.072,85.628
	c-6.596,3.813-14.8,1.965-18.33-4.139c-3.529-6.099-1.042-14.134,5.557-17.949l51.187-29.601c1.076-0.622,1.438-1.947,0.838-2.985
	c-0.597-1.038-1.929-1.397-2.968-0.796l-64.543,37.327c-6.6,3.814-14.803,1.963-18.331-4.138
	c-3.527-6.101-1.043-14.134,5.559-17.952l60.424-34.94c0.94-0.663,1.224-1.894,0.656-2.874c-0.565-0.975-1.769-1.348-2.77-0.896
	l-68.82,39.796c-6.589,3.814-14.801,1.963-18.331-4.138c-3.526-6.1-1.035-14.136,5.562-17.946l-0.012-0.023L342.256,134
	c1.078-0.621,1.428-1.947,0.828-2.985c-0.599-1.036-1.92-1.392-2.959-0.79l-56.551,32.703c-6.598,3.813-14.81,1.957-18.338-4.142
	c-3.527-6.1-1.036-14.142,5.561-17.957l102.958-59.266"/>
<g>
	<g>
		<path fill="#FFFFFF" d="M266.043,487.864l67.883-67.527c5.258-5.229,9.553-9.51,9.544-9.51s-0.017-6.068-0.017-13.484
			l0.004-223.403c0-7.417-6.067-13.484-13.483-13.484H125.442c-7.417,0-13.483,6.068-13.483,13.484v300.44
			c0,7.416,6.067,13.484,13.483,13.484H266.043"/>
		<path fill="none" stroke="#3B4DA0" stroke-width="4.045" stroke-miterlimit="10" d="M266.043,487.864l67.883-67.527
			c5.258-5.229,9.553-9.51,9.544-9.51s-0.017-6.068-0.017-13.484l0.004-223.403c0-7.417-6.067-13.484-13.483-13.484H125.442
			c-7.417,0-13.483,6.068-13.483,13.484v300.44c0,7.416,6.067,13.484,13.483,13.484H266.043"/>
	</g>
	<g>
		<path fill="none" stroke="#569FD6" stroke-width="4.045" stroke-miterlimit="10" d="M316.045,258.561l0.002-57.567
			c0-7.417-6.068-13.484-13.484-13.484h-57.741"/>
	</g>
	<polyline fill="#FFE288" stroke="#3B4DA0" stroke-width="4.045" stroke-miterlimit="10" points="264.434,487.137 264.434,410.008 
		341.561,410.008 	"/>
	
		<rect x="134.475" y="345.2" fill="none" stroke="#3B4DA0" stroke-width="4.045" stroke-miterlimit="10" width="29.929" height="29.93"/>
	
		<rect x="134.475" y="395.043" fill="none" stroke="#3B4DA0" stroke-width="4.045" stroke-miterlimit="10" width="29.929" height="29.93"/>
	<polyline fill="none" stroke="#3B4DA0" stroke-width="4.045" stroke-miterlimit="10" points="134.475,308.398 143.898,317.814 
		166.317,295.4 	"/>
</g>
<rect x="132.399" y="217.506" fill="none" width="212.889" height="49.129"/>
<g opacity="0.7" enable-background="new    ">
	<path fill="#F40F31" d="M146.948,218.466v11.671c0,1.854-0.594,3.324-1.781,4.407c-1.188,1.084-2.769,1.626-4.744,1.626
		c-1.999,0-3.586-0.534-4.762-1.602c-1.175-1.067-1.763-2.549-1.763-4.444v-11.658h3.022v11.664c0,1.166,0.295,2.056,0.887,2.671
		c0.592,0.614,1.463,0.922,2.615,0.922c2.335,0,3.502-1.229,3.502-3.688v-11.568H146.948z"/>
	<path fill="#F40F31" d="M159.314,231.432c0-0.768-0.27-1.359-0.81-1.775c-0.54-0.415-1.514-0.835-2.921-1.259
		s-2.527-0.896-3.358-1.415c-1.591-1-2.387-2.304-2.387-3.91c0-1.407,0.574-2.567,1.721-3.479c1.147-0.912,2.637-1.367,4.468-1.367
		c1.215,0,2.299,0.224,3.25,0.671c0.952,0.448,1.699,1.086,2.243,1.913c0.543,0.828,0.815,1.745,0.815,2.753h-3.022
		c0-0.904-0.286-1.611-0.857-2.123c-0.572-0.512-1.39-0.768-2.453-0.768c-0.992,0-1.761,0.211-2.309,0.633
		c-0.548,0.423-0.822,1.012-0.822,1.769c0,0.637,0.296,1.168,0.888,1.595c0.591,0.426,1.567,0.84,2.926,1.242
		s2.451,0.861,3.274,1.377s1.427,1.107,1.812,1.774c0.384,0.668,0.576,1.45,0.576,2.346c0,1.455-0.558,2.612-1.673,3.472
		c-1.116,0.86-2.629,1.29-4.54,1.29c-1.263,0-2.425-0.234-3.484-0.702s-1.883-1.113-2.471-1.937
		c-0.587-0.824-0.881-1.783-0.881-2.879h3.034c0,0.991,0.328,1.759,0.984,2.303c0.655,0.544,1.595,0.815,2.818,0.815
		c1.056,0,1.849-0.214,2.381-0.642S159.314,232.136,159.314,231.432z"/>
	<path fill="#F40F31" d="M175.219,228.134h-7.173v5.349h8.384v2.447h-11.418v-17.464h11.334v2.447h-8.3v4.821h7.173V228.134z"/>
	<path fill="#F40F31" d="M185.317,229.213h-3.382v6.717h-3.034v-17.464h6.141c2.015,0,3.57,0.452,4.666,1.356
		c1.095,0.904,1.643,2.213,1.643,3.926c0,1.169-0.282,2.146-0.846,2.935c-0.563,0.789-1.349,1.395-2.357,1.819l3.922,7.272v0.155
		h-3.25L185.317,229.213z M181.935,226.766h3.119c1.023,0,1.823-0.258,2.399-0.773s0.863-1.221,0.863-2.117
		c0-0.936-0.266-1.658-0.797-2.171c-0.532-0.511-1.325-0.775-2.381-0.791h-3.203V226.766z"/>
	<path fill="#F40F31" d="M211.621,235.93h-11.743v-2.003l5.817-6.345c0.84-0.936,1.438-1.718,1.793-2.345
		c0.356-0.628,0.534-1.258,0.534-1.89c0-0.831-0.234-1.503-0.702-2.015s-1.098-0.768-1.889-0.768c-0.944,0-1.675,0.287-2.195,0.863
		c-0.52,0.575-0.779,1.363-0.779,2.363h-2.915c0-1.063,0.242-2.021,0.726-2.873c0.483-0.852,1.175-1.514,2.075-1.985
		c0.9-0.472,1.938-0.707,3.113-0.707c1.695,0,3.032,0.426,4.012,1.277c0.979,0.852,1.469,2.028,1.469,3.532
		c0,0.871-0.246,1.785-0.738,2.74c-0.492,0.956-1.297,2.041-2.417,3.257l-4.27,4.569h8.108V235.93z"/>
</g>
<path id="XMLID_3_" opacity="0.2" fill="#F26C21" enable-background="new    " d="M290.131,318.665l-25.715,25.708l-0.038-0.048l0,0
	l-25.668-25.698c-6.268-6.271-6.268-16.416,0-22.684c6.267-6.269,16.41-6.227,22.671,0l3.117,3.113l3.073-3.068
	c6.267-6.271,16.416-6.271,22.679,0C296.439,302.249,296.395,312.396,290.131,318.665z"/>
<path fill="#FCF6BD" stroke="#6D6E70" stroke-width="4.045" stroke-miterlimit="10" d="M138.147,487.908
	c0,0-26.553-3.885-26.553-21.438s0-56.022,0-56.022s31.373-13.817,41.458-19.795c4.856-2.988,12.324-6.723,9.338-19.422
	c-2.615-11.205-12.7-11.205-20.914-8.963c-4.109,1.119-51.003,24.082-51.003,24.082s-10.879,3.479-10.879,21.406
	c0,17.929-6.093,60.58-6.093,60.58l-31.373,35.855l49.674,48.179l40.955-38.116c0,0,18.803,1.516,30.381-7.074
	c8.216-5.976,23.996-19.271,23.996-19.271H138.147L138.147,487.908z"/>
<path fill="none" stroke="#000000" stroke-width="2.047" stroke-miterlimit="10" d="M487.073,533.444"/>
<path fill="none" stroke="#000000" stroke-width="2.047" stroke-miterlimit="10" d="M487.073,533.444"/>
<path fill="none" stroke="#000000" stroke-width="2.047" stroke-miterlimit="10" d="M608.968,465.377"/>
</svg>
